<mxfile host="app.diagrams.net" agent="Mozilla/5.0 (Windows NT 10.0; Win64; x64) AppleWebKit/537.36 (KHTML, like Gecko) Chrome/137.0.0.0 Safari/537.36" version="27.1.4">
  <diagram name="Vista de Componentes de Alto Nivel" id="XgYhL_Q5aQ_7c3n0z8jG">
    <mxGraphModel dx="1426" dy="823" grid="1" gridSize="10" guides="1" tooltips="1" connect="1" arrows="1" fold="1" page="1" pageScale="1" pageWidth="1169" pageHeight="827" math="0" shadow="0">
      <root>
        <mxCell id="0" />
        <mxCell id="1" parent="0" />
        <mxCell id="ShVdANdpUh66wp8vAkwB-5" value="&lt;b&gt;DB de videos&lt;/b&gt;" style="rounded=0;whiteSpace=wrap;html=1;fillColor=#FFFFA1;strokeColor=#D6CC47;align=center;verticalAlign=top;" parent="1" vertex="1">
          <mxGeometry x="90" y="690" width="381" height="137" as="geometry" />
        </mxCell>
        <mxCell id="w_2soSmwlIYScSrbt7qk-7" value="" style="endArrow=none;html=1;rounded=0;entryX=0.452;entryY=0.947;entryDx=0;entryDy=0;entryPerimeter=0;exitX=0.659;exitY=-0.107;exitDx=0;exitDy=0;exitPerimeter=0;" parent="1" source="S-wfzaOlgkgEpIh9Br1b-61" target="w_2soSmwlIYScSrbt7qk-6" edge="1">
          <mxGeometry width="50" height="50" relative="1" as="geometry">
            <mxPoint x="570" y="376" as="sourcePoint" />
            <mxPoint x="620" y="326" as="targetPoint" />
          </mxGeometry>
        </mxCell>
        <mxCell id="S-wfzaOlgkgEpIh9Br1b-59" value="" style="rounded=0;orthogonalLoop=1;jettySize=auto;html=1;endArrow=oval;endFill=0;sketch=0;sourcePerimeterSpacing=0;targetPerimeterSpacing=0;endSize=10;exitX=0.374;exitY=0.222;exitDx=0;exitDy=0;exitPerimeter=0;" parent="1" source="w_2soSmwlIYScSrbt7qk-6" target="S-wfzaOlgkgEpIh9Br1b-60" edge="1">
          <mxGeometry relative="1" as="geometry">
            <mxPoint x="627" y="571" as="sourcePoint" />
          </mxGeometry>
        </mxCell>
        <mxCell id="S-wfzaOlgkgEpIh9Br1b-67" value="DBProvider" style="edgeLabel;html=1;align=center;verticalAlign=middle;resizable=0;points=[];" parent="S-wfzaOlgkgEpIh9Br1b-59" vertex="1" connectable="0">
          <mxGeometry x="0.6647" y="-1" relative="1" as="geometry">
            <mxPoint x="1" as="offset" />
          </mxGeometry>
        </mxCell>
        <mxCell id="S-wfzaOlgkgEpIh9Br1b-58" value="" style="rounded=0;orthogonalLoop=1;jettySize=auto;html=1;endArrow=halfCircle;endFill=0;endSize=6;strokeWidth=1;sketch=0;exitX=0.705;exitY=1.004;exitDx=0;exitDy=0;exitPerimeter=0;" parent="1" source="DKqnZgWaFf-IS6omjSuh-20" target="S-wfzaOlgkgEpIh9Br1b-60" edge="1">
          <mxGeometry relative="1" as="geometry">
            <mxPoint x="667" y="571" as="sourcePoint" />
          </mxGeometry>
        </mxCell>
        <mxCell id="bJ7sigGb2fM7xMqMPN_4-60" value="CRM" style="html=1;whiteSpace=wrap;align=center;verticalAlign=top;fontSize=15;fontStyle=1;container=0;fillColor=#8089FF;strokeColor=#0800FF;strokeWidth=2;" parent="1" vertex="1">
          <mxGeometry x="820" y="316" width="880" height="270" as="geometry" />
        </mxCell>
        <mxCell id="bJ7sigGb2fM7xMqMPN_4-32" value="Frontend" style="rounded=0;whiteSpace=wrap;html=1;align=center;verticalAlign=top;fontStyle=1;fontSize=15;fillColor=#F89B91;strokeColor=#b85450;" parent="1" vertex="1">
          <mxGeometry x="740" width="610" height="90" as="geometry" />
        </mxCell>
        <mxCell id="bJ7sigGb2fM7xMqMPN_4-30" value="Interfaz administrativa" style="shape=module;align=left;spacingLeft=20;align=center;verticalAlign=middle;whiteSpace=wrap;html=1;fillColor=#f8cecc;strokeColor=#b85450;" parent="1" vertex="1">
          <mxGeometry x="1180" y="30" width="150" height="50" as="geometry" />
        </mxCell>
        <mxCell id="bJ7sigGb2fM7xMqMPN_4-40" value="API Datos" style="shape=module;align=left;spacingLeft=20;align=center;verticalAlign=middle;whiteSpace=wrap;html=1;fontStyle=1;fillColor=#d5e8d4;strokeColor=#82b366;" parent="1" vertex="1">
          <mxGeometry x="989" y="215.7" width="109" height="50" as="geometry" />
        </mxCell>
        <mxCell id="bJ7sigGb2fM7xMqMPN_4-70" value="API Videos" style="shape=module;align=left;spacingLeft=20;align=center;verticalAlign=middle;whiteSpace=wrap;html=1;fontStyle=1;fillColor=#d5e8d4;strokeColor=#82b366;" parent="1" vertex="1">
          <mxGeometry x="728" y="215.7" width="100" height="50" as="geometry" />
        </mxCell>
        <mxCell id="bJ7sigGb2fM7xMqMPN_4-79" value="Gestor del control de acceso" style="shape=module;align=left;spacingLeft=20;align=center;verticalAlign=middle;whiteSpace=wrap;html=1;fontSize=13;fontStyle=1;fillColor=#CAEAFF;strokeColor=#5DA8FF;" parent="1" vertex="1">
          <mxGeometry x="1790" y="314" width="390" height="72" as="geometry" />
        </mxCell>
        <mxCell id="DKqnZgWaFf-IS6omjSuh-20" value="Autenticación y autorización" style="shape=module;align=center;spacingLeft=20;align=center;verticalAlign=middle;whiteSpace=wrap;html=1;fillColor=#ffe6cc;strokeColor=#d79b00;" parent="1" vertex="1">
          <mxGeometry x="525" y="121" width="120" height="50" as="geometry" />
        </mxCell>
        <mxCell id="DKqnZgWaFf-IS6omjSuh-21" value="" style="rounded=0;orthogonalLoop=1;jettySize=auto;html=1;endArrow=halfCircle;endFill=0;endSize=6;strokeWidth=1;sketch=0;exitX=0.016;exitY=0.509;exitDx=0;exitDy=0;exitPerimeter=0;" parent="1" source="DKqnZgWaFf-IS6omjSuh-34" target="DKqnZgWaFf-IS6omjSuh-23" edge="1">
          <mxGeometry relative="1" as="geometry">
            <mxPoint x="650" y="81" as="sourcePoint" />
            <mxPoint x="620" y="85" as="targetPoint" />
          </mxGeometry>
        </mxCell>
        <mxCell id="DKqnZgWaFf-IS6omjSuh-22" value="" style="rounded=0;orthogonalLoop=1;jettySize=auto;html=1;endArrow=oval;endFill=0;sketch=0;sourcePerimeterSpacing=0;targetPerimeterSpacing=0;endSize=10;entryX=0.123;entryY=0.562;entryDx=0;entryDy=0;entryPerimeter=0;exitX=1;exitY=0.5;exitDx=0;exitDy=0;" parent="1" source="DKqnZgWaFf-IS6omjSuh-20" target="DKqnZgWaFf-IS6omjSuh-23" edge="1">
          <mxGeometry relative="1" as="geometry">
            <mxPoint x="660" y="136" as="sourcePoint" />
            <mxPoint x="624" y="81" as="targetPoint" />
          </mxGeometry>
        </mxCell>
        <mxCell id="DKqnZgWaFf-IS6omjSuh-38" value="IdAuth" style="edgeLabel;html=1;align=center;verticalAlign=middle;resizable=0;points=[];" parent="DKqnZgWaFf-IS6omjSuh-22" vertex="1" connectable="0">
          <mxGeometry x="0.2263" relative="1" as="geometry">
            <mxPoint x="18" y="15" as="offset" />
          </mxGeometry>
        </mxCell>
        <mxCell id="DKqnZgWaFf-IS6omjSuh-23" value="" style="ellipse;whiteSpace=wrap;html=1;align=center;aspect=fixed;fillColor=none;strokeColor=none;resizable=0;perimeter=centerPerimeter;rotatable=0;allowArrows=0;points=[];outlineConnect=1;" parent="1" vertex="1">
          <mxGeometry x="690" y="141" width="10" height="10" as="geometry" />
        </mxCell>
        <mxCell id="DKqnZgWaFf-IS6omjSuh-34" value="B.O.B. (Edge Gateway)" style="shape=module;align=center;spacingLeft=20;align=center;verticalAlign=middle;whiteSpace=wrap;html=1;fontSize=19;fontStyle=1;fillColor=#ffe6cc;strokeColor=#d79b00;" parent="1" vertex="1">
          <mxGeometry x="728" y="121" width="622" height="50" as="geometry" />
        </mxCell>
        <mxCell id="DKqnZgWaFf-IS6omjSuh-35" value="" style="endArrow=classic;html=1;rounded=0;exitX=0.413;exitY=1.006;exitDx=0;exitDy=0;entryX=0.424;entryY=-0.009;entryDx=0;entryDy=0;entryPerimeter=0;dashed=1;exitPerimeter=0;" parent="1" source="bJ7sigGb2fM7xMqMPN_4-32" target="DKqnZgWaFf-IS6omjSuh-34" edge="1">
          <mxGeometry width="50" height="50" relative="1" as="geometry">
            <mxPoint x="1130" y="120" as="sourcePoint" />
            <mxPoint x="1180" y="70" as="targetPoint" />
          </mxGeometry>
        </mxCell>
        <mxCell id="DKqnZgWaFf-IS6omjSuh-42" value="" style="group" parent="1" vertex="1" connectable="0">
          <mxGeometry x="575" y="719" width="134" height="107.5" as="geometry" />
        </mxCell>
        <mxCell id="DKqnZgWaFf-IS6omjSuh-41" value="" style="shape=module;align=left;spacingLeft=20;align=center;verticalAlign=top;whiteSpace=wrap;html=1;fillColor=#FFFDC5;strokeColor=#d6b656;" parent="DKqnZgWaFf-IS6omjSuh-42" vertex="1">
          <mxGeometry width="134" height="107.5" as="geometry" />
        </mxCell>
        <mxCell id="DKqnZgWaFf-IS6omjSuh-39" value="DB general" style="shape=cylinder3;whiteSpace=wrap;html=1;boundedLbl=1;backgroundOutline=1;size=15;fillColor=#f8cecc;strokeColor=#b85450;" parent="DKqnZgWaFf-IS6omjSuh-42" vertex="1">
          <mxGeometry x="47" y="13.629999999999999" width="50" height="80.25" as="geometry" />
        </mxCell>
        <mxCell id="DKqnZgWaFf-IS6omjSuh-44" value="" style="endArrow=classic;html=1;rounded=0;exitX=0.068;exitY=1.012;exitDx=0;exitDy=0;entryX=0.419;entryY=-0.024;entryDx=0;entryDy=0;entryPerimeter=0;dashed=1;exitPerimeter=0;" parent="1" source="DKqnZgWaFf-IS6omjSuh-34" target="bJ7sigGb2fM7xMqMPN_4-70" edge="1">
          <mxGeometry width="50" height="50" relative="1" as="geometry">
            <mxPoint x="770.0899999999999" y="172" as="sourcePoint" />
            <mxPoint x="769.7" y="234.39999999999998" as="targetPoint" />
          </mxGeometry>
        </mxCell>
        <mxCell id="DKqnZgWaFf-IS6omjSuh-45" value="" style="endArrow=classic;html=1;rounded=0;entryX=0.388;entryY=-0.017;entryDx=0;entryDy=0;entryPerimeter=0;dashed=1;exitX=0.488;exitY=1.001;exitDx=0;exitDy=0;exitPerimeter=0;" parent="1" source="DKqnZgWaFf-IS6omjSuh-34" target="bJ7sigGb2fM7xMqMPN_4-40" edge="1">
          <mxGeometry width="50" height="50" relative="1" as="geometry">
            <mxPoint x="1031" y="171" as="sourcePoint" />
            <mxPoint x="1031.244" y="234.35000000000002" as="targetPoint" />
          </mxGeometry>
        </mxCell>
        <mxCell id="DKqnZgWaFf-IS6omjSuh-46" value="API Interaccioens" style="shape=module;align=left;spacingLeft=20;align=center;verticalAlign=middle;whiteSpace=wrap;html=1;fontStyle=1;fillColor=#d5e8d4;strokeColor=#82b366;" parent="1" vertex="1">
          <mxGeometry x="1220" y="215.65" width="130" height="50" as="geometry" />
        </mxCell>
        <mxCell id="DKqnZgWaFf-IS6omjSuh-48" value="" style="endArrow=classic;html=1;rounded=0;exitX=0.873;exitY=1.007;exitDx=0;exitDy=0;entryX=0.391;entryY=-0.016;entryDx=0;entryDy=0;entryPerimeter=0;dashed=1;exitPerimeter=0;" parent="1" source="DKqnZgWaFf-IS6omjSuh-34" target="DKqnZgWaFf-IS6omjSuh-46" edge="1">
          <mxGeometry width="50" height="50" relative="1" as="geometry">
            <mxPoint x="1283.494" y="171.04999999999995" as="sourcePoint" />
            <mxPoint x="1283.79" y="234.35000000000002" as="targetPoint" />
          </mxGeometry>
        </mxCell>
        <mxCell id="DKqnZgWaFf-IS6omjSuh-54" value="" style="ellipse;whiteSpace=wrap;html=1;align=center;aspect=fixed;fillColor=none;strokeColor=none;resizable=0;perimeter=centerPerimeter;rotatable=0;allowArrows=0;points=[];outlineConnect=1;" parent="1" vertex="1">
          <mxGeometry x="600" y="255" width="10" height="10" as="geometry" />
        </mxCell>
        <mxCell id="DKqnZgWaFf-IS6omjSuh-57" value="" style="rounded=0;orthogonalLoop=1;jettySize=auto;html=1;endArrow=halfCircle;endFill=0;endSize=6;strokeWidth=1;sketch=0;jumpStyle=arc;jumpSize=15;entryX=1.1;entryY=0.42;entryDx=0;entryDy=0;entryPerimeter=0;exitX=0.1;exitY=0.497;exitDx=0;exitDy=0;exitPerimeter=0;" parent="1" source="bJ7sigGb2fM7xMqMPN_4-70" target="DKqnZgWaFf-IS6omjSuh-62" edge="1">
          <mxGeometry relative="1" as="geometry">
            <mxPoint x="700" y="226" as="sourcePoint" />
            <mxPoint x="430" y="259" as="targetPoint" />
          </mxGeometry>
        </mxCell>
        <mxCell id="DKqnZgWaFf-IS6omjSuh-58" value="" style="rounded=0;orthogonalLoop=1;jettySize=auto;html=1;endArrow=oval;endFill=0;sketch=0;sourcePerimeterSpacing=0;targetPerimeterSpacing=0;endSize=10;exitX=0.5;exitY=0;exitDx=0;exitDy=0;entryX=0.22;entryY=0.54;entryDx=0;entryDy=0;entryPerimeter=0;jumpStyle=arc;jumpSize=15;" parent="1" target="DKqnZgWaFf-IS6omjSuh-62" edge="1">
          <mxGeometry relative="1" as="geometry">
            <mxPoint x="95" y="316" as="sourcePoint" />
            <mxPoint x="420" y="260" as="targetPoint" />
            <Array as="points">
              <mxPoint x="95" y="241" />
            </Array>
          </mxGeometry>
        </mxCell>
        <mxCell id="DKqnZgWaFf-IS6omjSuh-59" value="StreamProvider" style="edgeLabel;html=1;align=center;verticalAlign=middle;resizable=0;points=[];" parent="DKqnZgWaFf-IS6omjSuh-58" vertex="1" connectable="0">
          <mxGeometry x="0.2263" relative="1" as="geometry">
            <mxPoint x="94" y="-18" as="offset" />
          </mxGeometry>
        </mxCell>
        <mxCell id="DKqnZgWaFf-IS6omjSuh-60" value="" style="ellipse;whiteSpace=wrap;html=1;align=center;aspect=fixed;fillColor=none;strokeColor=none;resizable=0;perimeter=centerPerimeter;rotatable=0;allowArrows=0;points=[];outlineConnect=1;" parent="1" vertex="1">
          <mxGeometry x="565" y="300" width="10" height="10" as="geometry" />
        </mxCell>
        <mxCell id="DKqnZgWaFf-IS6omjSuh-62" value="" style="ellipse;whiteSpace=wrap;html=1;align=center;aspect=fixed;fillColor=none;strokeColor=none;resizable=0;perimeter=centerPerimeter;rotatable=0;allowArrows=0;points=[];outlineConnect=1;" parent="1" vertex="1">
          <mxGeometry x="259" y="235.7" width="10" height="10" as="geometry" />
        </mxCell>
        <mxCell id="DKqnZgWaFf-IS6omjSuh-69" value="" style="group" parent="1" vertex="1" connectable="0">
          <mxGeometry x="100.5" y="714" width="166.5" height="107.5" as="geometry" />
        </mxCell>
        <mxCell id="DKqnZgWaFf-IS6omjSuh-70" value="" style="shape=module;align=left;spacingLeft=20;align=center;verticalAlign=top;whiteSpace=wrap;html=1;fillColor=light-dark(#fffdc5, #281d00);strokeColor=#d6b656;" parent="DKqnZgWaFf-IS6omjSuh-69" vertex="1">
          <mxGeometry width="166.5" height="107.5" as="geometry" />
        </mxCell>
        <mxCell id="DKqnZgWaFf-IS6omjSuh-71" value="DB histórica de videos" style="shape=cylinder3;whiteSpace=wrap;html=1;boundedLbl=1;backgroundOutline=1;size=15;fillColor=#f8cecc;strokeColor=#b85450;" parent="DKqnZgWaFf-IS6omjSuh-69" vertex="1">
          <mxGeometry x="46.05319148936171" y="10.56" width="91.46872340425533" height="86.37" as="geometry" />
        </mxCell>
        <mxCell id="DKqnZgWaFf-IS6omjSuh-72" value="La Heladera" style="shape=module;align=left;spacingLeft=20;align=center;verticalAlign=middle;whiteSpace=wrap;html=1;fillColor=#e1d5e7;strokeColor=#9673a6;" parent="1" vertex="1">
          <mxGeometry x="30" y="618" width="219" height="50" as="geometry" />
        </mxCell>
        <mxCell id="DKqnZgWaFf-IS6omjSuh-78" value="" style="ellipse;whiteSpace=wrap;html=1;align=center;aspect=fixed;fillColor=none;strokeColor=none;resizable=0;perimeter=centerPerimeter;rotatable=0;allowArrows=0;points=[];outlineConnect=1;" parent="1" vertex="1">
          <mxGeometry x="120" y="314" width="10" height="10" as="geometry" />
        </mxCell>
        <mxCell id="DKqnZgWaFf-IS6omjSuh-79" value="Consultor de videos" style="shape=module;align=left;spacingLeft=20;align=center;verticalAlign=middle;whiteSpace=wrap;html=1;fontStyle=1;fontSize=13;fillColor=#dae8fc;strokeColor=#6c8ebf;" parent="1" vertex="1">
          <mxGeometry x="306" y="407.75" width="169" height="80" as="geometry" />
        </mxCell>
        <mxCell id="DKqnZgWaFf-IS6omjSuh-82" value="" style="rounded=0;orthogonalLoop=1;jettySize=auto;html=1;endArrow=halfCircle;endFill=0;endSize=6;strokeWidth=1;sketch=0;exitX=0.82;exitY=0.999;exitDx=0;exitDy=0;jumpStyle=arc;jumpSize=15;exitPerimeter=0;" parent="1" source="bJ7sigGb2fM7xMqMPN_4-70" target="DKqnZgWaFf-IS6omjSuh-84" edge="1">
          <mxGeometry relative="1" as="geometry">
            <mxPoint x="750" y="341" as="sourcePoint" />
            <Array as="points">
              <mxPoint x="810" y="390" />
            </Array>
          </mxGeometry>
        </mxCell>
        <mxCell id="DKqnZgWaFf-IS6omjSuh-85" value="VideoProvider" style="edgeLabel;html=1;align=center;verticalAlign=middle;resizable=0;points=[];" parent="DKqnZgWaFf-IS6omjSuh-82" vertex="1" connectable="0">
          <mxGeometry x="0.5684" relative="1" as="geometry">
            <mxPoint x="-65" y="16" as="offset" />
          </mxGeometry>
        </mxCell>
        <mxCell id="DKqnZgWaFf-IS6omjSuh-83" value="" style="rounded=0;orthogonalLoop=1;jettySize=auto;html=1;endArrow=oval;endFill=0;sketch=0;sourcePerimeterSpacing=0;targetPerimeterSpacing=0;endSize=10;jumpStyle=arc;jumpSize=15;exitX=0.75;exitY=0;exitDx=0;exitDy=0;" parent="1" source="DKqnZgWaFf-IS6omjSuh-79" target="DKqnZgWaFf-IS6omjSuh-84" edge="1">
          <mxGeometry relative="1" as="geometry">
            <mxPoint x="760" y="336" as="sourcePoint" />
            <Array as="points">
              <mxPoint x="433" y="390" />
            </Array>
          </mxGeometry>
        </mxCell>
        <mxCell id="DKqnZgWaFf-IS6omjSuh-84" value="" style="ellipse;whiteSpace=wrap;html=1;align=center;aspect=fixed;fillColor=none;strokeColor=none;resizable=0;perimeter=centerPerimeter;rotatable=0;allowArrows=0;points=[];outlineConnect=1;" parent="1" vertex="1">
          <mxGeometry x="690" y="385" width="10" height="10" as="geometry" />
        </mxCell>
        <mxCell id="DKqnZgWaFf-IS6omjSuh-87" value="Modelo de scoring" style="shape=module;align=left;spacingLeft=20;align=center;verticalAlign=middle;whiteSpace=wrap;html=1;fillColor=#dae8fc;strokeColor=#6c8ebf;" parent="1" vertex="1">
          <mxGeometry x="306" y="314.5" width="91" height="50" as="geometry" />
        </mxCell>
        <mxCell id="DKqnZgWaFf-IS6omjSuh-88" value="" style="rounded=0;orthogonalLoop=1;jettySize=auto;html=1;endArrow=halfCircle;endFill=0;endSize=6;strokeWidth=1;sketch=0;exitX=0.149;exitY=-0.006;exitDx=0;exitDy=0;exitPerimeter=0;" parent="1" source="DKqnZgWaFf-IS6omjSuh-79" target="DKqnZgWaFf-IS6omjSuh-90" edge="1">
          <mxGeometry relative="1" as="geometry">
            <mxPoint x="470" y="376" as="sourcePoint" />
          </mxGeometry>
        </mxCell>
        <mxCell id="DKqnZgWaFf-IS6omjSuh-89" value="" style="rounded=0;orthogonalLoop=1;jettySize=auto;html=1;endArrow=oval;endFill=0;sketch=0;sourcePerimeterSpacing=0;targetPerimeterSpacing=0;endSize=10;exitX=0.277;exitY=1.001;exitDx=0;exitDy=0;exitPerimeter=0;" parent="1" source="DKqnZgWaFf-IS6omjSuh-87" target="DKqnZgWaFf-IS6omjSuh-90" edge="1">
          <mxGeometry relative="1" as="geometry">
            <mxPoint x="442.922" y="365.99999999999994" as="sourcePoint" />
          </mxGeometry>
        </mxCell>
        <mxCell id="S-wfzaOlgkgEpIh9Br1b-40" value="VideoScorer" style="edgeLabel;html=1;align=center;verticalAlign=middle;resizable=0;points=[];" parent="DKqnZgWaFf-IS6omjSuh-89" vertex="1" connectable="0">
          <mxGeometry x="0.1029" relative="1" as="geometry">
            <mxPoint x="33" y="-3" as="offset" />
          </mxGeometry>
        </mxCell>
        <mxCell id="DKqnZgWaFf-IS6omjSuh-90" value="" style="ellipse;whiteSpace=wrap;html=1;align=center;aspect=fixed;fillColor=none;strokeColor=none;resizable=0;perimeter=centerPerimeter;rotatable=0;allowArrows=0;points=[];outlineConnect=1;" parent="1" vertex="1">
          <mxGeometry x="326" y="381" width="10" height="10" as="geometry" />
        </mxCell>
        <mxCell id="DKqnZgWaFf-IS6omjSuh-92" value="Persistencia datos e información general" style="shape=module;align=left;spacingLeft=20;align=center;verticalAlign=middle;whiteSpace=wrap;html=1;fillColor=#e1d5e7;strokeColor=#9673a6;" parent="1" vertex="1">
          <mxGeometry x="575" y="617" width="135" height="49" as="geometry" />
        </mxCell>
        <mxCell id="DKqnZgWaFf-IS6omjSuh-93" value="" style="endArrow=classic;html=1;rounded=0;exitX=0.5;exitY=1;exitDx=0;exitDy=0;entryX=0.502;entryY=-0.005;entryDx=0;entryDy=0;dashed=1;entryPerimeter=0;" parent="1" source="DKqnZgWaFf-IS6omjSuh-92" target="DKqnZgWaFf-IS6omjSuh-41" edge="1">
          <mxGeometry width="50" height="50" relative="1" as="geometry">
            <mxPoint x="700" y="825" as="sourcePoint" />
            <mxPoint x="700" y="656" as="targetPoint" />
          </mxGeometry>
        </mxCell>
        <mxCell id="DKqnZgWaFf-IS6omjSuh-96" value="Aplicación web" style="shape=module;align=left;spacingLeft=20;align=center;verticalAlign=middle;whiteSpace=wrap;html=1;fillColor=#f8cecc;strokeColor=#b85450;" parent="1" vertex="1">
          <mxGeometry x="970" y="30" width="150" height="50" as="geometry" />
        </mxCell>
        <mxCell id="DKqnZgWaFf-IS6omjSuh-97" value="Aplicación mobile" style="shape=module;align=left;spacingLeft=20;align=center;verticalAlign=middle;whiteSpace=wrap;html=1;fillColor=#f8cecc;strokeColor=#b85450;" parent="1" vertex="1">
          <mxGeometry x="760" y="30" width="150" height="50" as="geometry" />
        </mxCell>
        <mxCell id="DKqnZgWaFf-IS6omjSuh-102" value="" style="rounded=0;orthogonalLoop=1;jettySize=auto;html=1;endArrow=halfCircle;endFill=0;endSize=6;strokeWidth=1;sketch=0;exitX=0.139;exitY=1.011;exitDx=0;exitDy=0;exitPerimeter=0;" parent="1" source="bJ7sigGb2fM7xMqMPN_4-40" target="DKqnZgWaFf-IS6omjSuh-105" edge="1">
          <mxGeometry relative="1" as="geometry">
            <mxPoint x="1020" y="276" as="sourcePoint" />
            <mxPoint x="1204.5" y="275.6" as="targetPoint" />
          </mxGeometry>
        </mxCell>
        <mxCell id="DKqnZgWaFf-IS6omjSuh-103" value="" style="rounded=0;orthogonalLoop=1;jettySize=auto;html=1;endArrow=oval;endFill=0;sketch=0;sourcePerimeterSpacing=0;targetPerimeterSpacing=0;endSize=10;exitX=0.209;exitY=0.001;exitDx=0;exitDy=0;entryX=0.123;entryY=0.562;entryDx=0;entryDy=0;entryPerimeter=0;exitPerimeter=0;" parent="1" source="bJ7sigGb2fM7xMqMPN_4-60" target="DKqnZgWaFf-IS6omjSuh-105" edge="1">
          <mxGeometry relative="1" as="geometry">
            <mxPoint x="1004.123" y="283.95000000000016" as="sourcePoint" />
            <mxPoint x="1208.5" y="270.6" as="targetPoint" />
          </mxGeometry>
        </mxCell>
        <mxCell id="DKqnZgWaFf-IS6omjSuh-104" value="CRUDcrm" style="edgeLabel;html=1;align=center;verticalAlign=middle;resizable=0;points=[];" parent="DKqnZgWaFf-IS6omjSuh-103" vertex="1" connectable="0">
          <mxGeometry x="0.2263" relative="1" as="geometry">
            <mxPoint y="3" as="offset" />
          </mxGeometry>
        </mxCell>
        <mxCell id="DKqnZgWaFf-IS6omjSuh-105" value="" style="ellipse;whiteSpace=wrap;html=1;align=center;aspect=fixed;fillColor=none;strokeColor=none;resizable=0;perimeter=centerPerimeter;rotatable=0;allowArrows=0;points=[];outlineConnect=1;" parent="1" vertex="1">
          <mxGeometry x="999" y="282" width="10" height="10" as="geometry" />
        </mxCell>
        <mxCell id="DKqnZgWaFf-IS6omjSuh-110" value="" style="endArrow=classic;html=1;rounded=0;exitX=0.582;exitY=0.007;exitDx=0;exitDy=0;entryX=0.573;entryY=1.013;entryDx=0;entryDy=0;entryPerimeter=0;dashed=1;exitPerimeter=0;" parent="1" source="DKqnZgWaFf-IS6omjSuh-34" target="bJ7sigGb2fM7xMqMPN_4-32" edge="1">
          <mxGeometry width="50" height="50" relative="1" as="geometry">
            <mxPoint x="990" y="110" as="sourcePoint" />
            <mxPoint x="991" y="154" as="targetPoint" />
          </mxGeometry>
        </mxCell>
        <mxCell id="DKqnZgWaFf-IS6omjSuh-111" value="" style="endArrow=classic;html=1;rounded=0;exitX=0.75;exitY=0;exitDx=0;exitDy=0;entryX=0.121;entryY=0.995;entryDx=0;entryDy=0;entryPerimeter=0;dashed=1;" parent="1" source="bJ7sigGb2fM7xMqMPN_4-70" target="DKqnZgWaFf-IS6omjSuh-34" edge="1">
          <mxGeometry width="50" height="50" relative="1" as="geometry">
            <mxPoint x="790.3899999999999" y="206" as="sourcePoint" />
            <mxPoint x="790" y="268.4" as="targetPoint" />
          </mxGeometry>
        </mxCell>
        <mxCell id="DKqnZgWaFf-IS6omjSuh-112" value="" style="endArrow=classic;html=1;rounded=0;exitX=0.709;exitY=-0.021;exitDx=0;exitDy=0;entryX=0.544;entryY=1.012;entryDx=0;entryDy=0;entryPerimeter=0;dashed=1;exitPerimeter=0;" parent="1" source="bJ7sigGb2fM7xMqMPN_4-40" target="DKqnZgWaFf-IS6omjSuh-34" edge="1">
          <mxGeometry width="50" height="50" relative="1" as="geometry">
            <mxPoint x="1060" y="206" as="sourcePoint" />
            <mxPoint x="1060.024" y="269.2" as="targetPoint" />
          </mxGeometry>
        </mxCell>
        <mxCell id="DKqnZgWaFf-IS6omjSuh-113" value="" style="endArrow=classic;html=1;rounded=0;exitX=0.75;exitY=0;exitDx=0;exitDy=0;entryX=0.947;entryY=1.002;entryDx=0;entryDy=0;entryPerimeter=0;dashed=1;" parent="1" source="DKqnZgWaFf-IS6omjSuh-46" target="DKqnZgWaFf-IS6omjSuh-34" edge="1">
          <mxGeometry width="50" height="50" relative="1" as="geometry">
            <mxPoint x="1310" y="216" as="sourcePoint" />
            <mxPoint x="1317.082" y="171.14999999999998" as="targetPoint" />
          </mxGeometry>
        </mxCell>
        <mxCell id="DKqnZgWaFf-IS6omjSuh-118" value="" style="ellipse;whiteSpace=wrap;html=1;align=center;aspect=fixed;fillColor=none;strokeColor=none;resizable=0;perimeter=centerPerimeter;rotatable=0;allowArrows=0;points=[];outlineConnect=1;container=0;" parent="1" vertex="1">
          <mxGeometry x="1078" y="314" width="10" height="10" as="geometry" />
        </mxCell>
        <mxCell id="DKqnZgWaFf-IS6omjSuh-119" value="" style="rounded=0;orthogonalLoop=1;jettySize=auto;html=1;endArrow=halfCircle;endFill=0;endSize=6;strokeWidth=1;sketch=0;exitX=0.25;exitY=0;exitDx=0;exitDy=0;entryX=0.395;entryY=0.324;entryDx=0;entryDy=0;entryPerimeter=0;" parent="1" source="DKqnZgWaFf-IS6omjSuh-115" target="DKqnZgWaFf-IS6omjSuh-122" edge="1">
          <mxGeometry relative="1" as="geometry">
            <mxPoint x="1115" y="350" as="sourcePoint" />
            <mxPoint x="1083" y="330.0000000000002" as="targetPoint" />
          </mxGeometry>
        </mxCell>
        <mxCell id="DKqnZgWaFf-IS6omjSuh-120" value="" style="rounded=0;orthogonalLoop=1;jettySize=auto;html=1;endArrow=oval;endFill=0;sketch=0;sourcePerimeterSpacing=0;targetPerimeterSpacing=0;endSize=10;entryX=0.123;entryY=0.562;entryDx=0;entryDy=0;entryPerimeter=0;exitX=0.86;exitY=1.007;exitDx=0;exitDy=0;exitPerimeter=0;" parent="1" source="bJ7sigGb2fM7xMqMPN_4-40" target="DKqnZgWaFf-IS6omjSuh-122" edge="1">
          <mxGeometry relative="1" as="geometry">
            <mxPoint x="1080" y="276" as="sourcePoint" />
            <mxPoint x="1319.5" y="272.6" as="targetPoint" />
          </mxGeometry>
        </mxCell>
        <mxCell id="DKqnZgWaFf-IS6omjSuh-121" value="NotificarResidente" style="edgeLabel;html=1;align=center;verticalAlign=middle;resizable=0;points=[];" parent="DKqnZgWaFf-IS6omjSuh-120" vertex="1" connectable="0">
          <mxGeometry x="0.2263" relative="1" as="geometry">
            <mxPoint x="5" y="-4" as="offset" />
          </mxGeometry>
        </mxCell>
        <mxCell id="DKqnZgWaFf-IS6omjSuh-122" value="" style="ellipse;whiteSpace=wrap;html=1;align=center;aspect=fixed;fillColor=none;strokeColor=none;resizable=0;perimeter=centerPerimeter;rotatable=0;allowArrows=0;points=[];outlineConnect=1;" parent="1" vertex="1">
          <mxGeometry x="1078" y="292" width="10" height="10" as="geometry" />
        </mxCell>
        <mxCell id="S-wfzaOlgkgEpIh9Br1b-22" value="" style="rounded=0;orthogonalLoop=1;jettySize=auto;html=1;endArrow=halfCircle;endFill=0;endSize=6;strokeWidth=1;sketch=0;exitX=0.294;exitY=-0.011;exitDx=0;exitDy=0;exitPerimeter=0;" parent="1" source="DKqnZgWaFf-IS6omjSuh-72" target="S-wfzaOlgkgEpIh9Br1b-24" edge="1">
          <mxGeometry relative="1" as="geometry">
            <mxPoint x="145" y="561" as="sourcePoint" />
          </mxGeometry>
        </mxCell>
        <mxCell id="S-wfzaOlgkgEpIh9Br1b-23" value="" style="rounded=0;orthogonalLoop=1;jettySize=auto;html=1;endArrow=oval;endFill=0;sketch=0;sourcePerimeterSpacing=0;targetPerimeterSpacing=0;endSize=10;exitX=0.5;exitY=1;exitDx=0;exitDy=0;" parent="1" target="S-wfzaOlgkgEpIh9Br1b-24" edge="1">
          <mxGeometry relative="1" as="geometry">
            <mxPoint x="95" y="366" as="sourcePoint" />
          </mxGeometry>
        </mxCell>
        <mxCell id="S-wfzaOlgkgEpIh9Br1b-25" value="OlderVideosProvider" style="edgeLabel;html=1;align=center;verticalAlign=middle;resizable=0;points=[];" parent="S-wfzaOlgkgEpIh9Br1b-23" vertex="1" connectable="0">
          <mxGeometry x="0.6934" relative="1" as="geometry">
            <mxPoint y="7" as="offset" />
          </mxGeometry>
        </mxCell>
        <mxCell id="S-wfzaOlgkgEpIh9Br1b-24" value="" style="ellipse;whiteSpace=wrap;html=1;align=center;aspect=fixed;fillColor=none;strokeColor=none;resizable=0;perimeter=centerPerimeter;rotatable=0;allowArrows=0;points=[];outlineConnect=1;" parent="1" vertex="1">
          <mxGeometry x="90" y="523" width="10" height="10" as="geometry" />
        </mxCell>
        <mxCell id="S-wfzaOlgkgEpIh9Br1b-26" value="" style="rounded=0;orthogonalLoop=1;jettySize=auto;html=1;endArrow=halfCircle;endFill=0;endSize=6;strokeWidth=1;sketch=0;exitX=0.062;exitY=0.906;exitDx=0;exitDy=0;exitPerimeter=0;" parent="1" source="DKqnZgWaFf-IS6omjSuh-79" target="S-wfzaOlgkgEpIh9Br1b-28" edge="1">
          <mxGeometry relative="1" as="geometry">
            <mxPoint x="230" y="391" as="sourcePoint" />
            <Array as="points">
              <mxPoint x="128" y="480" />
            </Array>
          </mxGeometry>
        </mxCell>
        <mxCell id="S-wfzaOlgkgEpIh9Br1b-27" value="" style="rounded=0;orthogonalLoop=1;jettySize=auto;html=1;endArrow=oval;endFill=0;sketch=0;sourcePerimeterSpacing=0;targetPerimeterSpacing=0;endSize=10;exitX=0.75;exitY=1;exitDx=0;exitDy=0;" parent="1" target="S-wfzaOlgkgEpIh9Br1b-28" edge="1">
          <mxGeometry relative="1" as="geometry">
            <mxPoint x="127.5" y="366" as="sourcePoint" />
          </mxGeometry>
        </mxCell>
        <mxCell id="S-wfzaOlgkgEpIh9Br1b-33" value="NewerVideosProvider" style="edgeLabel;html=1;align=center;verticalAlign=middle;resizable=0;points=[];" parent="S-wfzaOlgkgEpIh9Br1b-27" vertex="1" connectable="0">
          <mxGeometry x="0.4768" y="1" relative="1" as="geometry">
            <mxPoint x="22" y="-5" as="offset" />
          </mxGeometry>
        </mxCell>
        <mxCell id="S-wfzaOlgkgEpIh9Br1b-28" value="" style="ellipse;whiteSpace=wrap;html=1;align=center;aspect=fixed;fillColor=none;strokeColor=none;resizable=0;perimeter=centerPerimeter;rotatable=0;allowArrows=0;points=[];outlineConnect=1;" parent="1" vertex="1">
          <mxGeometry x="123" y="414" width="10" height="10" as="geometry" />
        </mxCell>
        <mxCell id="DKqnZgWaFf-IS6omjSuh-115" value="Registro de incidentes" style="shape=module;align=left;spacingLeft=20;align=center;verticalAlign=middle;whiteSpace=wrap;html=1;container=0;fillColor=light-dark(#a8abfe, #30477a);strokeColor=#1A31AF;" parent="1" vertex="1">
          <mxGeometry x="1060" y="329" width="94" height="49" as="geometry" />
        </mxCell>
        <mxCell id="DKqnZgWaFf-IS6omjSuh-131" value="" style="endArrow=none;html=1;rounded=0;entryX=0.512;entryY=0;entryDx=0;entryDy=0;exitX=0.587;exitY=0.602;exitDx=0;exitDy=0;exitPerimeter=0;entryPerimeter=0;" parent="1" source="DKqnZgWaFf-IS6omjSuh-132" target="bJ7sigGb2fM7xMqMPN_4-53" edge="1">
          <mxGeometry width="50" height="50" relative="1" as="geometry">
            <mxPoint x="1131" y="500" as="sourcePoint" />
            <mxPoint x="1170" y="612" as="targetPoint" />
          </mxGeometry>
        </mxCell>
        <mxCell id="DKqnZgWaFf-IS6omjSuh-132" value="" style="shape=waypoint;sketch=0;fillStyle=solid;size=6;pointerEvents=1;points=[];fillColor=none;resizable=0;rotatable=0;perimeter=centerPerimeter;snapToPoint=1;container=0;" parent="1" vertex="1">
          <mxGeometry x="1120" y="418" width="20" height="20" as="geometry" />
        </mxCell>
        <mxCell id="S-wfzaOlgkgEpIh9Br1b-36" value="" style="group" parent="1" vertex="1" connectable="0">
          <mxGeometry x="840" y="456" width="566.8" height="110" as="geometry" />
        </mxCell>
        <mxCell id="bJ7sigGb2fM7xMqMPN_4-53" value="Auditoría e Historial" style="shape=module;align=left;spacingLeft=20;align=center;verticalAlign=top;whiteSpace=wrap;html=1;container=0;fillColor=light-dark(#a9acff, #ededed);strokeColor=#1A31AF;" parent="S-wfzaOlgkgEpIh9Br1b-36" vertex="1">
          <mxGeometry width="566.8" height="110" as="geometry" />
        </mxCell>
        <mxCell id="bJ7sigGb2fM7xMqMPN_4-54" value="Historial de accesos" style="html=1;whiteSpace=wrap;container=0;fillColor=#CCCAFF;" parent="S-wfzaOlgkgEpIh9Br1b-36" vertex="1">
          <mxGeometry x="36" y="40" width="118.5" height="50" as="geometry" />
        </mxCell>
        <mxCell id="bJ7sigGb2fM7xMqMPN_4-55" value="Registro de PINs (generación y uso)" style="html=1;whiteSpace=wrap;container=0;fillColor=#CCCAFF;" parent="S-wfzaOlgkgEpIh9Br1b-36" vertex="1">
          <mxGeometry x="166" y="40" width="118.5" height="50" as="geometry" />
        </mxCell>
        <mxCell id="bJ7sigGb2fM7xMqMPN_4-56" value="Historial de solicitudes a DB" style="html=1;whiteSpace=wrap;container=0;fillColor=#CCCAFF;" parent="S-wfzaOlgkgEpIh9Br1b-36" vertex="1">
          <mxGeometry x="426" y="40" width="120" height="50" as="geometry" />
        </mxCell>
        <mxCell id="bJ7sigGb2fM7xMqMPN_4-58" value="Logs" style="html=1;whiteSpace=wrap;container=0;fillColor=#CCCAFF;" parent="S-wfzaOlgkgEpIh9Br1b-36" vertex="1">
          <mxGeometry x="296" y="40" width="118.5" height="50" as="geometry" />
        </mxCell>
        <mxCell id="S-wfzaOlgkgEpIh9Br1b-37" value="" style="group" parent="1" vertex="1" connectable="0">
          <mxGeometry x="1427" y="336" width="165" height="230" as="geometry" />
        </mxCell>
        <mxCell id="bJ7sigGb2fM7xMqMPN_4-45" value="Gestión de entidades" style="shape=module;align=left;spacingLeft=20;align=center;verticalAlign=top;whiteSpace=wrap;html=1;container=0;strokeColor=light-dark(#1A13FF,#421DFF);fillColor=light-dark(#A9ACFF,#EDEDED);gradientColor=none;" parent="S-wfzaOlgkgEpIh9Br1b-37" vertex="1">
          <mxGeometry width="165" height="230" as="geometry" />
        </mxCell>
        <mxCell id="bJ7sigGb2fM7xMqMPN_4-46" value="Gestión de usuarios" style="html=1;whiteSpace=wrap;container=0;fillColor=light-dark(#cccaff, #ededed);" parent="S-wfzaOlgkgEpIh9Br1b-37" vertex="1">
          <mxGeometry x="36" y="160" width="110" height="50" as="geometry" />
        </mxCell>
        <mxCell id="bJ7sigGb2fM7xMqMPN_4-47" value="Gestión de edificios" style="html=1;whiteSpace=wrap;container=0;fillColor=light-dark(#cccaff, #ededed);" parent="S-wfzaOlgkgEpIh9Br1b-37" vertex="1">
          <mxGeometry x="36" y="100" width="110" height="50" as="geometry" />
        </mxCell>
        <mxCell id="bJ7sigGb2fM7xMqMPN_4-48" value="Gestión de dispositivos" style="html=1;whiteSpace=wrap;container=0;fillColor=light-dark(#cccaff, #ededed);" parent="S-wfzaOlgkgEpIh9Br1b-37" vertex="1">
          <mxGeometry x="36" y="40" width="110" height="50" as="geometry" />
        </mxCell>
        <mxCell id="S-wfzaOlgkgEpIh9Br1b-38" value="" style="shape=waypoint;sketch=0;fillStyle=solid;size=6;pointerEvents=1;points=[];fillColor=none;resizable=0;rotatable=0;perimeter=centerPerimeter;snapToPoint=1;container=0;" parent="1" vertex="1">
          <mxGeometry x="1368" y="418" width="20" height="20" as="geometry" />
        </mxCell>
        <mxCell id="S-wfzaOlgkgEpIh9Br1b-39" value="" style="endArrow=none;html=1;rounded=0;exitX=0.7;exitY=0.637;exitDx=0;exitDy=0;exitPerimeter=0;entryX=0.14;entryY=0.69;entryDx=0;entryDy=0;entryPerimeter=0;" parent="1" source="DKqnZgWaFf-IS6omjSuh-132" target="S-wfzaOlgkgEpIh9Br1b-38" edge="1">
          <mxGeometry width="50" height="50" relative="1" as="geometry">
            <mxPoint x="1325" y="428" as="sourcePoint" />
            <mxPoint x="1470" y="246" as="targetPoint" />
          </mxGeometry>
        </mxCell>
        <mxCell id="S-wfzaOlgkgEpIh9Br1b-42" value="" style="rounded=0;orthogonalLoop=1;jettySize=auto;html=1;endArrow=halfCircle;endFill=0;endSize=6;strokeWidth=1;sketch=0;exitX=0.75;exitY=1;exitDx=0;exitDy=0;" parent="1" source="DKqnZgWaFf-IS6omjSuh-115" target="S-wfzaOlgkgEpIh9Br1b-44" edge="1">
          <mxGeometry relative="1" as="geometry">
            <mxPoint x="1194" y="641" as="sourcePoint" />
          </mxGeometry>
        </mxCell>
        <mxCell id="S-wfzaOlgkgEpIh9Br1b-43" value="" style="rounded=0;orthogonalLoop=1;jettySize=auto;html=1;endArrow=oval;endFill=0;sketch=0;sourcePerimeterSpacing=0;targetPerimeterSpacing=0;endSize=10;exitX=0.386;exitY=1.152;exitDx=0;exitDy=0;exitPerimeter=0;" parent="1" source="DKqnZgWaFf-IS6omjSuh-132" target="S-wfzaOlgkgEpIh9Br1b-44" edge="1">
          <mxGeometry relative="1" as="geometry">
            <mxPoint x="1154" y="641" as="sourcePoint" />
          </mxGeometry>
        </mxCell>
        <mxCell id="S-wfzaOlgkgEpIh9Br1b-52" value="Log" style="edgeLabel;html=1;align=center;verticalAlign=middle;resizable=0;points=[];labelBackgroundColor=none;" parent="S-wfzaOlgkgEpIh9Br1b-43" vertex="1" connectable="0">
          <mxGeometry x="0.3131" relative="1" as="geometry">
            <mxPoint x="-14" y="-1" as="offset" />
          </mxGeometry>
        </mxCell>
        <mxCell id="S-wfzaOlgkgEpIh9Br1b-44" value="" style="ellipse;whiteSpace=wrap;html=1;align=center;aspect=fixed;fillColor=none;strokeColor=none;resizable=0;perimeter=centerPerimeter;rotatable=0;allowArrows=0;points=[];outlineConnect=1;" parent="1" vertex="1">
          <mxGeometry x="1125" y="390" width="10" height="10" as="geometry" />
        </mxCell>
        <mxCell id="S-wfzaOlgkgEpIh9Br1b-48" value="" style="rounded=0;orthogonalLoop=1;jettySize=auto;html=1;endArrow=halfCircle;endFill=0;endSize=6;strokeWidth=1;sketch=0;exitX=1;exitY=0.25;exitDx=0;exitDy=0;" parent="1" source="DKqnZgWaFf-IS6omjSuh-79" target="S-wfzaOlgkgEpIh9Br1b-50" edge="1">
          <mxGeometry relative="1" as="geometry">
            <mxPoint x="740" y="428" as="sourcePoint" />
          </mxGeometry>
        </mxCell>
        <mxCell id="S-wfzaOlgkgEpIh9Br1b-49" value="" style="rounded=0;orthogonalLoop=1;jettySize=auto;html=1;endArrow=oval;endFill=0;sketch=0;sourcePerimeterSpacing=0;targetPerimeterSpacing=0;endSize=10;exitX=0.47;exitY=0.1;exitDx=0;exitDy=0;exitPerimeter=0;jumpStyle=arc;jumpSize=15;" parent="1" source="DKqnZgWaFf-IS6omjSuh-132" target="S-wfzaOlgkgEpIh9Br1b-50" edge="1">
          <mxGeometry relative="1" as="geometry">
            <mxPoint x="700" y="428" as="sourcePoint" />
          </mxGeometry>
        </mxCell>
        <mxCell id="S-wfzaOlgkgEpIh9Br1b-51" value="Log" style="edgeLabel;html=1;align=center;verticalAlign=middle;resizable=0;points=[];" parent="S-wfzaOlgkgEpIh9Br1b-49" vertex="1" connectable="0">
          <mxGeometry x="0.9355" y="1" relative="1" as="geometry">
            <mxPoint x="-6" y="10" as="offset" />
          </mxGeometry>
        </mxCell>
        <mxCell id="S-wfzaOlgkgEpIh9Br1b-50" value="" style="ellipse;whiteSpace=wrap;html=1;align=center;aspect=fixed;fillColor=none;strokeColor=none;resizable=0;perimeter=centerPerimeter;rotatable=0;allowArrows=0;points=[];outlineConnect=1;" parent="1" vertex="1">
          <mxGeometry x="536" y="423" width="10" height="10" as="geometry" />
        </mxCell>
        <mxCell id="S-wfzaOlgkgEpIh9Br1b-54" value="" style="rounded=0;orthogonalLoop=1;jettySize=auto;html=1;endArrow=halfCircle;endFill=0;endSize=6;strokeWidth=1;sketch=0;exitX=0.061;exitY=0.4;exitDx=0;exitDy=0;exitPerimeter=0;" parent="1" source="bJ7sigGb2fM7xMqMPN_4-45" target="S-wfzaOlgkgEpIh9Br1b-56" edge="1">
          <mxGeometry relative="1" as="geometry">
            <mxPoint x="1510" y="428" as="sourcePoint" />
          </mxGeometry>
        </mxCell>
        <mxCell id="S-wfzaOlgkgEpIh9Br1b-55" value="" style="rounded=0;orthogonalLoop=1;jettySize=auto;html=1;endArrow=oval;endFill=0;sketch=0;sourcePerimeterSpacing=0;targetPerimeterSpacing=0;endSize=10;exitX=0.968;exitY=0.495;exitDx=0;exitDy=0;exitPerimeter=0;" parent="1" source="S-wfzaOlgkgEpIh9Br1b-38" target="S-wfzaOlgkgEpIh9Br1b-56" edge="1">
          <mxGeometry relative="1" as="geometry">
            <mxPoint x="1470" y="428" as="sourcePoint" />
          </mxGeometry>
        </mxCell>
        <mxCell id="S-wfzaOlgkgEpIh9Br1b-57" value="Log" style="edgeLabel;html=1;align=center;verticalAlign=middle;resizable=0;points=[];labelBackgroundColor=none;" parent="S-wfzaOlgkgEpIh9Br1b-55" vertex="1" connectable="0">
          <mxGeometry x="0.0437" y="-1" relative="1" as="geometry">
            <mxPoint x="5" y="-19" as="offset" />
          </mxGeometry>
        </mxCell>
        <mxCell id="S-wfzaOlgkgEpIh9Br1b-56" value="" style="ellipse;whiteSpace=wrap;html=1;align=center;aspect=fixed;fillColor=none;strokeColor=none;resizable=0;perimeter=centerPerimeter;rotatable=0;allowArrows=0;points=[];outlineConnect=1;" parent="1" vertex="1">
          <mxGeometry x="1406" y="423" width="10" height="10" as="geometry" />
        </mxCell>
        <mxCell id="S-wfzaOlgkgEpIh9Br1b-60" value="" style="ellipse;whiteSpace=wrap;html=1;align=center;aspect=fixed;fillColor=none;strokeColor=none;resizable=0;perimeter=centerPerimeter;rotatable=0;allowArrows=0;points=[];outlineConnect=1;" parent="1" vertex="1">
          <mxGeometry x="604" y="190" width="10" height="10" as="geometry" />
        </mxCell>
        <mxCell id="S-wfzaOlgkgEpIh9Br1b-61" value="" style="shape=waypoint;sketch=0;fillStyle=solid;size=6;pointerEvents=1;points=[];fillColor=none;resizable=0;rotatable=0;perimeter=centerPerimeter;snapToPoint=1;container=0;" parent="1" vertex="1">
          <mxGeometry x="599" y="536" width="20" height="20" as="geometry" />
        </mxCell>
        <mxCell id="S-wfzaOlgkgEpIh9Br1b-63" value="" style="rounded=0;orthogonalLoop=1;jettySize=auto;html=1;endArrow=halfCircle;endFill=0;endSize=6;strokeWidth=1;sketch=0;exitX=0;exitY=0.852;exitDx=0;exitDy=0;exitPerimeter=0;" parent="1" source="bJ7sigGb2fM7xMqMPN_4-60" target="S-wfzaOlgkgEpIh9Br1b-65" edge="1">
          <mxGeometry relative="1" as="geometry">
            <mxPoint x="800" y="546" as="sourcePoint" />
          </mxGeometry>
        </mxCell>
        <mxCell id="S-wfzaOlgkgEpIh9Br1b-64" value="" style="rounded=0;orthogonalLoop=1;jettySize=auto;html=1;endArrow=oval;endFill=0;sketch=0;sourcePerimeterSpacing=0;targetPerimeterSpacing=0;endSize=10;exitX=0.9;exitY=0.517;exitDx=0;exitDy=0;exitPerimeter=0;" parent="1" source="S-wfzaOlgkgEpIh9Br1b-61" target="S-wfzaOlgkgEpIh9Br1b-65" edge="1">
          <mxGeometry relative="1" as="geometry">
            <mxPoint x="672" y="551" as="sourcePoint" />
          </mxGeometry>
        </mxCell>
        <mxCell id="S-wfzaOlgkgEpIh9Br1b-65" value="" style="ellipse;whiteSpace=wrap;html=1;align=center;aspect=fixed;fillColor=none;strokeColor=none;resizable=0;perimeter=centerPerimeter;rotatable=0;allowArrows=0;points=[];outlineConnect=1;" parent="1" vertex="1">
          <mxGeometry x="690" y="541" width="10" height="10" as="geometry" />
        </mxCell>
        <mxCell id="S-wfzaOlgkgEpIh9Br1b-66" value="" style="endArrow=none;html=1;rounded=0;entryX=0.71;entryY=0.91;entryDx=0;entryDy=0;entryPerimeter=0;exitX=0.25;exitY=0;exitDx=0;exitDy=0;" parent="1" source="DKqnZgWaFf-IS6omjSuh-92" target="S-wfzaOlgkgEpIh9Br1b-61" edge="1">
          <mxGeometry width="50" height="50" relative="1" as="geometry">
            <mxPoint x="520" y="616" as="sourcePoint" />
            <mxPoint x="570" y="566" as="targetPoint" />
          </mxGeometry>
        </mxCell>
        <mxCell id="S-wfzaOlgkgEpIh9Br1b-68" value="DBProvider" style="edgeLabel;html=1;align=center;verticalAlign=middle;resizable=0;points=[];" parent="1" vertex="1" connectable="0">
          <mxGeometry x="680" y="561" as="geometry" />
        </mxCell>
        <mxCell id="S-wfzaOlgkgEpIh9Br1b-69" value="Persistencia videos fríos" style="shape=module;align=left;spacingLeft=20;align=center;verticalAlign=middle;whiteSpace=wrap;html=1;fillColor=#e1d5e7;strokeColor=#9673a6;" parent="1" vertex="1">
          <mxGeometry x="273.5" y="617" width="196.5" height="49" as="geometry" />
        </mxCell>
        <mxCell id="S-wfzaOlgkgEpIh9Br1b-70" value="" style="rounded=0;orthogonalLoop=1;jettySize=auto;html=1;endArrow=halfCircle;endFill=0;endSize=6;strokeWidth=1;sketch=0;exitX=0.25;exitY=1;exitDx=0;exitDy=0;" parent="1" source="DKqnZgWaFf-IS6omjSuh-79" target="S-wfzaOlgkgEpIh9Br1b-72" edge="1">
          <mxGeometry relative="1" as="geometry">
            <mxPoint x="541" y="571" as="sourcePoint" />
          </mxGeometry>
        </mxCell>
        <mxCell id="S-wfzaOlgkgEpIh9Br1b-71" value="" style="rounded=0;orthogonalLoop=1;jettySize=auto;html=1;endArrow=oval;endFill=0;sketch=0;sourcePerimeterSpacing=0;targetPerimeterSpacing=0;endSize=10;exitX=0.378;exitY=-0.017;exitDx=0;exitDy=0;exitPerimeter=0;" parent="1" source="S-wfzaOlgkgEpIh9Br1b-69" target="S-wfzaOlgkgEpIh9Br1b-72" edge="1">
          <mxGeometry relative="1" as="geometry">
            <mxPoint x="330" y="571" as="sourcePoint" />
          </mxGeometry>
        </mxCell>
        <mxCell id="S-wfzaOlgkgEpIh9Br1b-72" value="" style="ellipse;whiteSpace=wrap;html=1;align=center;aspect=fixed;fillColor=none;strokeColor=none;resizable=0;perimeter=centerPerimeter;rotatable=0;allowArrows=0;points=[];outlineConnect=1;" parent="1" vertex="1">
          <mxGeometry x="343" y="551" width="10" height="10" as="geometry" />
        </mxCell>
        <mxCell id="S-wfzaOlgkgEpIh9Br1b-73" value="DBProvider" style="edgeLabel;html=1;align=center;verticalAlign=middle;resizable=0;points=[];" parent="1" vertex="1" connectable="0">
          <mxGeometry x="348" y="576" as="geometry" />
        </mxCell>
        <mxCell id="S-wfzaOlgkgEpIh9Br1b-81" value="Gateway del edificio" style="shape=module;align=left;spacingLeft=20;align=center;verticalAlign=middle;whiteSpace=wrap;html=1;fillColor=#CAEAFF;strokeColor=#5DA8FF;" parent="1" vertex="1">
          <mxGeometry x="1835" y="407.75" width="300" height="48.25" as="geometry" />
        </mxCell>
        <mxCell id="S-wfzaOlgkgEpIh9Br1b-82" value="Edge Controller" style="shape=module;align=left;spacingLeft=20;align=center;verticalAlign=middle;whiteSpace=wrap;html=1;fillColor=#CAEAFF;strokeColor=#5DA8FF;" parent="1" vertex="1">
          <mxGeometry x="1972" y="536" width="155" height="50" as="geometry" />
        </mxCell>
        <mxCell id="S-wfzaOlgkgEpIh9Br1b-83" value="" style="group" parent="1" vertex="1" connectable="0">
          <mxGeometry x="1841" y="719" width="134" height="107.5" as="geometry" />
        </mxCell>
        <mxCell id="S-wfzaOlgkgEpIh9Br1b-84" value="" style="shape=module;align=left;spacingLeft=20;align=center;verticalAlign=top;whiteSpace=wrap;html=1;fillColor=light-dark(#fffdc5, #281d00);strokeColor=#d6b656;" parent="S-wfzaOlgkgEpIh9Br1b-83" vertex="1">
          <mxGeometry width="134" height="107.5" as="geometry" />
        </mxCell>
        <mxCell id="S-wfzaOlgkgEpIh9Br1b-85" value="DB local de tags" style="shape=cylinder3;whiteSpace=wrap;html=1;boundedLbl=1;backgroundOutline=1;size=15;fillColor=#f8cecc;strokeColor=#b85450;" parent="S-wfzaOlgkgEpIh9Br1b-83" vertex="1">
          <mxGeometry x="47" y="13.629999999999999" width="50" height="80.25" as="geometry" />
        </mxCell>
        <mxCell id="S-wfzaOlgkgEpIh9Br1b-86" value="Persistencia local de tags" style="shape=module;align=left;spacingLeft=20;align=center;verticalAlign=middle;whiteSpace=wrap;html=1;fillColor=#e1d5e7;strokeColor=#9673a6;" parent="1" vertex="1">
          <mxGeometry x="1840" y="617" width="135" height="49" as="geometry" />
        </mxCell>
        <mxCell id="S-wfzaOlgkgEpIh9Br1b-87" value="" style="endArrow=classic;html=1;rounded=0;exitX=0.5;exitY=1;exitDx=0;exitDy=0;entryX=0.5;entryY=0;entryDx=0;entryDy=0;dashed=1;" parent="1" source="S-wfzaOlgkgEpIh9Br1b-86" target="S-wfzaOlgkgEpIh9Br1b-84" edge="1">
          <mxGeometry width="50" height="50" relative="1" as="geometry">
            <mxPoint x="1621" y="790" as="sourcePoint" />
            <mxPoint x="1671" y="740" as="targetPoint" />
          </mxGeometry>
        </mxCell>
        <mxCell id="S-wfzaOlgkgEpIh9Br1b-88" value="" style="rounded=0;orthogonalLoop=1;jettySize=auto;html=1;endArrow=halfCircle;endFill=0;endSize=6;strokeWidth=1;sketch=0;exitX=1;exitY=0.5;exitDx=0;exitDy=0;" parent="1" source="DKqnZgWaFf-IS6omjSuh-46" target="S-wfzaOlgkgEpIh9Br1b-90" edge="1">
          <mxGeometry relative="1" as="geometry">
            <mxPoint x="1656" y="260" as="sourcePoint" />
          </mxGeometry>
        </mxCell>
        <mxCell id="S-wfzaOlgkgEpIh9Br1b-89" value="" style="rounded=0;orthogonalLoop=1;jettySize=auto;html=1;endArrow=oval;endFill=0;sketch=0;sourcePerimeterSpacing=0;targetPerimeterSpacing=0;endSize=10;exitX=0.129;exitY=-0.003;exitDx=0;exitDy=0;exitPerimeter=0;" parent="1" source="bJ7sigGb2fM7xMqMPN_4-79" target="S-wfzaOlgkgEpIh9Br1b-90" edge="1">
          <mxGeometry relative="1" as="geometry">
            <mxPoint x="1616" y="260" as="sourcePoint" />
            <Array as="points">
              <mxPoint x="1840" y="241" />
            </Array>
          </mxGeometry>
        </mxCell>
        <mxCell id="S-wfzaOlgkgEpIh9Br1b-95" value="AccessControlAPI" style="edgeLabel;html=1;align=center;verticalAlign=middle;resizable=0;points=[];" parent="S-wfzaOlgkgEpIh9Br1b-89" vertex="1" connectable="0">
          <mxGeometry x="0.748" y="-1" relative="1" as="geometry">
            <mxPoint x="21" y="-14" as="offset" />
          </mxGeometry>
        </mxCell>
        <mxCell id="S-wfzaOlgkgEpIh9Br1b-90" value="" style="ellipse;whiteSpace=wrap;html=1;align=center;aspect=fixed;fillColor=none;strokeColor=none;resizable=0;perimeter=centerPerimeter;rotatable=0;allowArrows=0;points=[];outlineConnect=1;" parent="1" vertex="1">
          <mxGeometry x="1675" y="235.65" width="10" height="10" as="geometry" />
        </mxCell>
        <mxCell id="S-wfzaOlgkgEpIh9Br1b-91" value="" style="rounded=0;orthogonalLoop=1;jettySize=auto;html=1;endArrow=halfCircle;endFill=0;endSize=6;strokeWidth=1;sketch=0;exitX=0.078;exitY=-0.004;exitDx=0;exitDy=0;exitPerimeter=0;" parent="1" source="bJ7sigGb2fM7xMqMPN_4-79" target="S-wfzaOlgkgEpIh9Br1b-93" edge="1">
          <mxGeometry relative="1" as="geometry">
            <mxPoint x="1530" y="288" as="sourcePoint" />
            <Array as="points">
              <mxPoint x="1820" y="256" />
            </Array>
          </mxGeometry>
        </mxCell>
        <mxCell id="S-wfzaOlgkgEpIh9Br1b-92" value="" style="rounded=0;orthogonalLoop=1;jettySize=auto;html=1;endArrow=oval;endFill=0;sketch=0;sourcePerimeterSpacing=0;targetPerimeterSpacing=0;endSize=10;exitX=0.288;exitY=0.064;exitDx=0;exitDy=0;exitPerimeter=0;" parent="1" source="S-wfzaOlgkgEpIh9Br1b-112" target="S-wfzaOlgkgEpIh9Br1b-93" edge="1">
          <mxGeometry relative="1" as="geometry">
            <mxPoint x="1490" y="288" as="sourcePoint" />
            <Array as="points">
              <mxPoint x="1378" y="258" />
            </Array>
          </mxGeometry>
        </mxCell>
        <mxCell id="S-wfzaOlgkgEpIh9Br1b-93" value="" style="ellipse;whiteSpace=wrap;html=1;align=center;aspect=fixed;fillColor=none;strokeColor=none;resizable=0;perimeter=centerPerimeter;rotatable=0;allowArrows=0;points=[];outlineConnect=1;" parent="1" vertex="1">
          <mxGeometry x="1553" y="253" width="10" height="10" as="geometry" />
        </mxCell>
        <mxCell id="S-wfzaOlgkgEpIh9Br1b-94" value="Log" style="edgeLabel;html=1;align=center;verticalAlign=middle;resizable=0;points=[];" parent="1" vertex="1" connectable="0">
          <mxGeometry x="1540" y="265.7" as="geometry" />
        </mxCell>
        <mxCell id="S-wfzaOlgkgEpIh9Br1b-96" value="" style="rounded=0;orthogonalLoop=1;jettySize=auto;html=1;endArrow=halfCircle;endFill=0;endSize=6;strokeWidth=1;sketch=0;exitX=1;exitY=0.5;exitDx=0;exitDy=0;" parent="1" source="bJ7sigGb2fM7xMqMPN_4-79" target="S-wfzaOlgkgEpIh9Br1b-98" edge="1">
          <mxGeometry relative="1" as="geometry">
            <mxPoint x="2280" y="433" as="sourcePoint" />
            <Array as="points">
              <mxPoint x="2249" y="350" />
            </Array>
          </mxGeometry>
        </mxCell>
        <mxCell id="S-wfzaOlgkgEpIh9Br1b-97" value="" style="rounded=0;orthogonalLoop=1;jettySize=auto;html=1;endArrow=oval;endFill=0;sketch=0;sourcePerimeterSpacing=0;targetPerimeterSpacing=0;endSize=10;exitX=1;exitY=0.25;exitDx=0;exitDy=0;" parent="1" source="S-wfzaOlgkgEpIh9Br1b-81" target="S-wfzaOlgkgEpIh9Br1b-98" edge="1">
          <mxGeometry relative="1" as="geometry">
            <mxPoint x="2240" y="433" as="sourcePoint" />
            <Array as="points">
              <mxPoint x="2249" y="420" />
            </Array>
          </mxGeometry>
        </mxCell>
        <mxCell id="S-wfzaOlgkgEpIh9Br1b-99" value="ComunicaciónInstalación" style="edgeLabel;html=1;align=center;verticalAlign=middle;resizable=0;points=[];" parent="S-wfzaOlgkgEpIh9Br1b-97" vertex="1" connectable="0">
          <mxGeometry x="0.8431" y="1" relative="1" as="geometry">
            <mxPoint y="6" as="offset" />
          </mxGeometry>
        </mxCell>
        <mxCell id="S-wfzaOlgkgEpIh9Br1b-98" value="" style="ellipse;whiteSpace=wrap;html=1;align=center;aspect=fixed;fillColor=none;strokeColor=none;resizable=0;perimeter=centerPerimeter;rotatable=0;allowArrows=0;points=[];outlineConnect=1;" parent="1" vertex="1">
          <mxGeometry x="2244" y="368" width="10" height="10" as="geometry" />
        </mxCell>
        <mxCell id="S-wfzaOlgkgEpIh9Br1b-100" value="" style="rounded=0;orthogonalLoop=1;jettySize=auto;html=1;endArrow=halfCircle;endFill=0;endSize=6;strokeWidth=1;sketch=0;exitX=0.715;exitY=1.027;exitDx=0;exitDy=0;exitPerimeter=0;" parent="1" source="S-wfzaOlgkgEpIh9Br1b-81" target="S-wfzaOlgkgEpIh9Br1b-102" edge="1">
          <mxGeometry relative="1" as="geometry">
            <mxPoint x="2244" y="571" as="sourcePoint" />
          </mxGeometry>
        </mxCell>
        <mxCell id="S-wfzaOlgkgEpIh9Br1b-101" value="" style="rounded=0;orthogonalLoop=1;jettySize=auto;html=1;endArrow=oval;endFill=0;sketch=0;sourcePerimeterSpacing=0;targetPerimeterSpacing=0;endSize=10;exitX=0.5;exitY=0;exitDx=0;exitDy=0;" parent="1" source="S-wfzaOlgkgEpIh9Br1b-82" target="S-wfzaOlgkgEpIh9Br1b-102" edge="1">
          <mxGeometry relative="1" as="geometry">
            <mxPoint x="2204" y="571" as="sourcePoint" />
          </mxGeometry>
        </mxCell>
        <mxCell id="S-wfzaOlgkgEpIh9Br1b-103" value="AccessControl" style="edgeLabel;html=1;align=center;verticalAlign=middle;resizable=0;points=[];" parent="S-wfzaOlgkgEpIh9Br1b-101" vertex="1" connectable="0">
          <mxGeometry x="0.3609" y="-1" relative="1" as="geometry">
            <mxPoint x="-1" y="6" as="offset" />
          </mxGeometry>
        </mxCell>
        <mxCell id="S-wfzaOlgkgEpIh9Br1b-102" value="" style="ellipse;whiteSpace=wrap;html=1;align=center;aspect=fixed;fillColor=none;strokeColor=none;resizable=0;perimeter=centerPerimeter;rotatable=0;allowArrows=0;points=[];outlineConnect=1;" parent="1" vertex="1">
          <mxGeometry x="2045" y="483" width="10" height="10" as="geometry" />
        </mxCell>
        <mxCell id="S-wfzaOlgkgEpIh9Br1b-104" value="" style="rounded=0;orthogonalLoop=1;jettySize=auto;html=1;endArrow=halfCircle;endFill=0;endSize=6;strokeWidth=1;sketch=0;exitX=0.5;exitY=1;exitDx=0;exitDy=0;" parent="1" source="S-wfzaOlgkgEpIh9Br1b-82" target="S-wfzaOlgkgEpIh9Br1b-106" edge="1">
          <mxGeometry relative="1" as="geometry">
            <mxPoint x="2070" y="648" as="sourcePoint" />
            <Array as="points">
              <mxPoint x="2050" y="641" />
            </Array>
          </mxGeometry>
        </mxCell>
        <mxCell id="S-wfzaOlgkgEpIh9Br1b-105" value="" style="rounded=0;orthogonalLoop=1;jettySize=auto;html=1;endArrow=oval;endFill=0;sketch=0;sourcePerimeterSpacing=0;targetPerimeterSpacing=0;endSize=10;exitX=1;exitY=0.5;exitDx=0;exitDy=0;" parent="1" source="S-wfzaOlgkgEpIh9Br1b-86" target="S-wfzaOlgkgEpIh9Br1b-106" edge="1">
          <mxGeometry relative="1" as="geometry">
            <mxPoint x="2030" y="643" as="sourcePoint" />
          </mxGeometry>
        </mxCell>
        <mxCell id="S-wfzaOlgkgEpIh9Br1b-107" value="DBProvider" style="edgeLabel;html=1;align=center;verticalAlign=middle;resizable=0;points=[];" parent="S-wfzaOlgkgEpIh9Br1b-105" vertex="1" connectable="0">
          <mxGeometry x="0.35" y="-1" relative="1" as="geometry">
            <mxPoint x="11" y="19" as="offset" />
          </mxGeometry>
        </mxCell>
        <mxCell id="S-wfzaOlgkgEpIh9Br1b-106" value="" style="ellipse;whiteSpace=wrap;html=1;align=center;aspect=fixed;fillColor=none;strokeColor=none;resizable=0;perimeter=centerPerimeter;rotatable=0;allowArrows=0;points=[];outlineConnect=1;" parent="1" vertex="1">
          <mxGeometry x="2020" y="636.5" width="10" height="10" as="geometry" />
        </mxCell>
        <mxCell id="S-wfzaOlgkgEpIh9Br1b-112" value="" style="shape=waypoint;sketch=0;fillStyle=solid;size=6;pointerEvents=1;points=[];fillColor=none;resizable=0;rotatable=0;perimeter=centerPerimeter;snapToPoint=1;container=0;" parent="1" vertex="1">
          <mxGeometry x="1368" y="287" width="20" height="20" as="geometry" />
        </mxCell>
        <mxCell id="S-wfzaOlgkgEpIh9Br1b-113" value="" style="endArrow=none;html=1;rounded=0;exitX=0.574;exitY=0.276;exitDx=0;exitDy=0;exitPerimeter=0;entryX=0.436;entryY=1.09;entryDx=0;entryDy=0;entryPerimeter=0;" parent="1" source="S-wfzaOlgkgEpIh9Br1b-38" target="QCWwCiVvSpLBN6h1Hko5-2" edge="1">
          <mxGeometry width="50" height="50" relative="1" as="geometry">
            <mxPoint x="1530" y="316" as="sourcePoint" />
            <mxPoint x="1580" y="266" as="targetPoint" />
          </mxGeometry>
        </mxCell>
        <mxCell id="S-wfzaOlgkgEpIh9Br1b-114" value="" style="rounded=0;orthogonalLoop=1;jettySize=auto;html=1;endArrow=halfCircle;endFill=0;endSize=6;strokeWidth=1;sketch=0;exitX=0.032;exitY=0.117;exitDx=0;exitDy=0;exitPerimeter=0;" parent="1" source="S-wfzaOlgkgEpIh9Br1b-81" target="S-wfzaOlgkgEpIh9Br1b-116" edge="1">
          <mxGeometry relative="1" as="geometry">
            <mxPoint x="1656" y="295" as="sourcePoint" />
            <Array as="points">
              <mxPoint x="1740" y="414" />
              <mxPoint x="1740" y="297" />
            </Array>
          </mxGeometry>
        </mxCell>
        <mxCell id="S-wfzaOlgkgEpIh9Br1b-115" value="" style="rounded=0;orthogonalLoop=1;jettySize=auto;html=1;endArrow=oval;endFill=0;sketch=0;sourcePerimeterSpacing=0;targetPerimeterSpacing=0;endSize=10;exitX=0.931;exitY=0.54;exitDx=0;exitDy=0;exitPerimeter=0;" parent="1" source="S-wfzaOlgkgEpIh9Br1b-112" target="S-wfzaOlgkgEpIh9Br1b-116" edge="1">
          <mxGeometry relative="1" as="geometry">
            <mxPoint x="1616" y="295" as="sourcePoint" />
          </mxGeometry>
        </mxCell>
        <mxCell id="S-wfzaOlgkgEpIh9Br1b-117" value="Log" style="edgeLabel;html=1;align=center;verticalAlign=middle;resizable=0;points=[];" parent="S-wfzaOlgkgEpIh9Br1b-115" vertex="1" connectable="0">
          <mxGeometry x="0.8495" y="-1" relative="1" as="geometry">
            <mxPoint y="-11" as="offset" />
          </mxGeometry>
        </mxCell>
        <mxCell id="S-wfzaOlgkgEpIh9Br1b-116" value="" style="ellipse;whiteSpace=wrap;html=1;align=center;aspect=fixed;fillColor=none;strokeColor=none;resizable=0;perimeter=centerPerimeter;rotatable=0;allowArrows=0;points=[];outlineConnect=1;" parent="1" vertex="1">
          <mxGeometry x="1631" y="292" width="10" height="10" as="geometry" />
        </mxCell>
        <mxCell id="S-wfzaOlgkgEpIh9Br1b-118" value="" style="rounded=0;orthogonalLoop=1;jettySize=auto;html=1;endArrow=halfCircle;endFill=0;endSize=6;strokeWidth=1;sketch=0;exitX=0.067;exitY=0.516;exitDx=0;exitDy=0;exitPerimeter=0;" parent="1" source="S-wfzaOlgkgEpIh9Br1b-82" target="S-wfzaOlgkgEpIh9Br1b-120" edge="1">
          <mxGeometry relative="1" as="geometry">
            <mxPoint x="1900" y="518" as="sourcePoint" />
            <Array as="points">
              <mxPoint x="1880" y="561" />
            </Array>
          </mxGeometry>
        </mxCell>
        <mxCell id="S-wfzaOlgkgEpIh9Br1b-119" value="" style="rounded=0;orthogonalLoop=1;jettySize=auto;html=1;endArrow=oval;endFill=0;sketch=0;sourcePerimeterSpacing=0;targetPerimeterSpacing=0;endSize=10;exitX=0.151;exitY=1.006;exitDx=0;exitDy=0;exitPerimeter=0;" parent="1" source="S-wfzaOlgkgEpIh9Br1b-81" target="S-wfzaOlgkgEpIh9Br1b-120" edge="1">
          <mxGeometry relative="1" as="geometry">
            <mxPoint x="1910" y="466" as="sourcePoint" />
          </mxGeometry>
        </mxCell>
        <mxCell id="S-wfzaOlgkgEpIh9Br1b-121" value="ConsistenciaLocal" style="edgeLabel;html=1;align=center;verticalAlign=middle;resizable=0;points=[];" parent="S-wfzaOlgkgEpIh9Br1b-119" vertex="1" connectable="0">
          <mxGeometry x="0.571" relative="1" as="geometry">
            <mxPoint x="-2" y="-5" as="offset" />
          </mxGeometry>
        </mxCell>
        <mxCell id="S-wfzaOlgkgEpIh9Br1b-120" value="" style="ellipse;whiteSpace=wrap;html=1;align=center;aspect=fixed;fillColor=none;strokeColor=none;resizable=0;perimeter=centerPerimeter;rotatable=0;allowArrows=0;points=[];outlineConnect=1;" parent="1" vertex="1">
          <mxGeometry x="1875" y="513" width="10" height="10" as="geometry" />
        </mxCell>
        <mxCell id="S-wfzaOlgkgEpIh9Br1b-122" value="" style="rounded=0;orthogonalLoop=1;jettySize=auto;html=1;endArrow=halfCircle;endFill=0;endSize=6;strokeWidth=1;sketch=0;exitX=0.033;exitY=0.902;exitDx=0;exitDy=0;exitPerimeter=0;" parent="1" source="S-wfzaOlgkgEpIh9Br1b-81" target="S-wfzaOlgkgEpIh9Br1b-124" edge="1">
          <mxGeometry relative="1" as="geometry">
            <mxPoint x="1790" y="451" as="sourcePoint" />
          </mxGeometry>
        </mxCell>
        <mxCell id="S-wfzaOlgkgEpIh9Br1b-123" value="" style="rounded=0;orthogonalLoop=1;jettySize=auto;html=1;endArrow=oval;endFill=0;sketch=0;sourcePerimeterSpacing=0;targetPerimeterSpacing=0;endSize=10;exitX=1.004;exitY=0.531;exitDx=0;exitDy=0;exitPerimeter=0;" parent="1" source="QCWwCiVvSpLBN6h1Hko5-1" target="S-wfzaOlgkgEpIh9Br1b-124" edge="1">
          <mxGeometry relative="1" as="geometry">
            <mxPoint x="1750" y="451" as="sourcePoint" />
          </mxGeometry>
        </mxCell>
        <mxCell id="S-wfzaOlgkgEpIh9Br1b-125" value="ConsistenciaProvider" style="edgeLabel;html=1;align=center;verticalAlign=middle;resizable=0;points=[];" parent="S-wfzaOlgkgEpIh9Br1b-123" vertex="1" connectable="0">
          <mxGeometry x="0.3847" relative="1" as="geometry">
            <mxPoint x="17" y="17" as="offset" />
          </mxGeometry>
        </mxCell>
        <mxCell id="S-wfzaOlgkgEpIh9Br1b-124" value="" style="ellipse;whiteSpace=wrap;html=1;align=center;aspect=fixed;fillColor=none;strokeColor=none;resizable=0;perimeter=centerPerimeter;rotatable=0;allowArrows=0;points=[];outlineConnect=1;" parent="1" vertex="1">
          <mxGeometry x="1765" y="446" width="10" height="10" as="geometry" />
        </mxCell>
        <mxCell id="dFqZVwC_QpCYS0JxQoPN-1" value="Diagrama de componentes" style="rounded=0;whiteSpace=wrap;html=1;fillColor=#bac8d3;strokeColor=#23445d;" parent="1" vertex="1">
          <mxGeometry x="10" y="10" width="100" height="50" as="geometry" />
        </mxCell>
        <mxCell id="dFqZVwC_QpCYS0JxQoPN-2" value="🟥 -&amp;nbsp; Capa de presentación&lt;div&gt;🟧 -&amp;nbsp; Capa borde&lt;/div&gt;&lt;div&gt;&lt;span style=&quot;background-color: transparent; color: light-dark(rgb(51, 51, 51), rgb(193, 193, 193));&quot;&gt;🟩&lt;/span&gt;&amp;nbsp;-&amp;nbsp; Capa de servicios de aplicación&lt;/div&gt;&lt;div&gt;&lt;span style=&quot;background-color: transparent; color: light-dark(rgb(51, 51, 51), rgb(193, 193, 193));&quot;&gt;🟦 -&amp;nbsp; Capa de negocio (3 microservicios)&lt;/span&gt;&lt;/div&gt;&lt;div&gt;🟪 -&amp;nbsp; Capa de control de datos&lt;/div&gt;&lt;div&gt;🟨 -&amp;nbsp; Capa de datos&lt;/div&gt;" style="shape=note;whiteSpace=wrap;html=1;backgroundOutline=1;darkOpacity=0.05;align=left;verticalAlign=top;spacing=7;spacingLeft=10;fillColor=#f5f5f5;fontColor=#333333;strokeColor=#666666;" parent="1" vertex="1">
          <mxGeometry x="10" y="80" width="260" height="110" as="geometry" />
        </mxCell>
        <mxCell id="dFqZVwC_QpCYS0JxQoPN-3" value="Patrón Multi-Tier" style="shape=note;whiteSpace=wrap;html=1;backgroundOutline=1;darkOpacity=0.05;align=left;verticalAlign=middle;spacing=7;spacingLeft=10;fillColor=#f5f5f5;fontColor=#333333;strokeColor=#666666;fontStyle=1;fontSize=13;size=16;" parent="1" vertex="1">
          <mxGeometry x="138.5" y="5" width="130.5" height="60" as="geometry" />
        </mxCell>
        <mxCell id="Cfm1eyybCcQVPQHvOfWW-1" value="" style="rounded=0;orthogonalLoop=1;jettySize=auto;html=1;endArrow=halfCircle;endFill=0;endSize=6;strokeWidth=1;sketch=0;exitX=1.001;exitY=0.739;exitDx=0;exitDy=0;exitPerimeter=0;" parent="1" source="S-wfzaOlgkgEpIh9Br1b-81" edge="1">
          <mxGeometry relative="1" as="geometry">
            <mxPoint x="2230" y="468" as="sourcePoint" />
            <mxPoint x="2280" y="443" as="targetPoint" />
          </mxGeometry>
        </mxCell>
        <mxCell id="Cfm1eyybCcQVPQHvOfWW-3" value="" style="ellipse;whiteSpace=wrap;html=1;align=center;aspect=fixed;fillColor=none;strokeColor=none;resizable=0;perimeter=centerPerimeter;rotatable=0;allowArrows=0;points=[];outlineConnect=1;" parent="1" vertex="1">
          <mxGeometry x="2310" y="438" width="10" height="10" as="geometry" />
        </mxCell>
        <mxCell id="Cfm1eyybCcQVPQHvOfWW-4" value="ReproductorDeMensaje" style="text;html=1;align=center;verticalAlign=middle;whiteSpace=wrap;rounded=0;" parent="1" vertex="1">
          <mxGeometry x="2208" y="448" width="130" height="30" as="geometry" />
        </mxCell>
        <mxCell id="Cfm1eyybCcQVPQHvOfWW-5" value="Conexión con tótem o con parlantes remotos del portero para efectuar la comunicación por voz" style="shape=note;whiteSpace=wrap;html=1;backgroundOutline=1;darkOpacity=0.05;align=left;size=16;" parent="1" vertex="1">
          <mxGeometry x="2200" y="487.75" width="138" height="85" as="geometry" />
        </mxCell>
        <mxCell id="w_2soSmwlIYScSrbt7qk-2" value="" style="rounded=0;orthogonalLoop=1;jettySize=auto;html=1;endArrow=halfCircle;endFill=0;endSize=6;strokeWidth=1;sketch=0;jumpStyle=arc;jumpSize=15;exitX=0.633;exitY=1.013;exitDx=0;exitDy=0;exitPerimeter=0;" parent="1" source="bJ7sigGb2fM7xMqMPN_4-70" target="w_2soSmwlIYScSrbt7qk-4" edge="1">
          <mxGeometry relative="1" as="geometry">
            <mxPoint x="760" y="336" as="sourcePoint" />
            <Array as="points">
              <mxPoint x="792" y="357" />
            </Array>
          </mxGeometry>
        </mxCell>
        <mxCell id="w_2soSmwlIYScSrbt7qk-3" value="" style="rounded=0;orthogonalLoop=1;jettySize=auto;html=1;endArrow=oval;endFill=0;sketch=0;sourcePerimeterSpacing=0;targetPerimeterSpacing=0;endSize=10;exitX=1.004;exitY=0.9;exitDx=0;exitDy=0;exitPerimeter=0;" parent="1" source="DKqnZgWaFf-IS6omjSuh-87" target="w_2soSmwlIYScSrbt7qk-4" edge="1">
          <mxGeometry relative="1" as="geometry">
            <mxPoint x="485" y="334" as="sourcePoint" />
          </mxGeometry>
        </mxCell>
        <mxCell id="w_2soSmwlIYScSrbt7qk-5" value="ModifyScoring" style="edgeLabel;html=1;align=center;verticalAlign=middle;resizable=0;points=[];" parent="w_2soSmwlIYScSrbt7qk-3" vertex="1" connectable="0">
          <mxGeometry x="0.6785" y="-1" relative="1" as="geometry">
            <mxPoint x="-3" y="-19" as="offset" />
          </mxGeometry>
        </mxCell>
        <mxCell id="w_2soSmwlIYScSrbt7qk-4" value="" style="ellipse;whiteSpace=wrap;html=1;align=center;aspect=fixed;fillColor=none;strokeColor=none;resizable=0;perimeter=centerPerimeter;rotatable=0;allowArrows=0;points=[];outlineConnect=1;" parent="1" vertex="1">
          <mxGeometry x="534" y="354.5" width="10" height="10" as="geometry" />
        </mxCell>
        <mxCell id="w_2soSmwlIYScSrbt7qk-6" value="" style="shape=waypoint;sketch=0;fillStyle=solid;size=6;pointerEvents=1;points=[];fillColor=none;resizable=0;rotatable=0;perimeter=centerPerimeter;snapToPoint=1;container=0;" parent="1" vertex="1">
          <mxGeometry x="599" y="276" width="20" height="20" as="geometry" />
        </mxCell>
        <mxCell id="w_2soSmwlIYScSrbt7qk-8" value="" style="rounded=0;orthogonalLoop=1;jettySize=auto;html=1;endArrow=halfCircle;endFill=0;endSize=6;strokeWidth=1;sketch=0;exitX=0.744;exitY=-0.009;exitDx=0;exitDy=0;exitPerimeter=0;" parent="1" source="DKqnZgWaFf-IS6omjSuh-87" target="w_2soSmwlIYScSrbt7qk-10" edge="1">
          <mxGeometry relative="1" as="geometry">
            <mxPoint x="500" y="271" as="sourcePoint" />
            <Array as="points">
              <mxPoint x="374" y="287" />
            </Array>
          </mxGeometry>
        </mxCell>
        <mxCell id="w_2soSmwlIYScSrbt7qk-9" value="" style="rounded=0;orthogonalLoop=1;jettySize=auto;html=1;endArrow=oval;endFill=0;sketch=0;sourcePerimeterSpacing=0;targetPerimeterSpacing=0;endSize=10;exitX=0.21;exitY=0.705;exitDx=0;exitDy=0;exitPerimeter=0;" parent="1" source="w_2soSmwlIYScSrbt7qk-6" target="w_2soSmwlIYScSrbt7qk-10" edge="1">
          <mxGeometry relative="1" as="geometry">
            <mxPoint x="460" y="271" as="sourcePoint" />
          </mxGeometry>
        </mxCell>
        <mxCell id="w_2soSmwlIYScSrbt7qk-10" value="" style="ellipse;whiteSpace=wrap;html=1;align=center;aspect=fixed;fillColor=none;strokeColor=none;resizable=0;perimeter=centerPerimeter;rotatable=0;allowArrows=0;points=[];outlineConnect=1;" parent="1" vertex="1">
          <mxGeometry x="565" y="281" width="10" height="10" as="geometry" />
        </mxCell>
        <mxCell id="w_2soSmwlIYScSrbt7qk-11" value="DBProvider" style="edgeLabel;html=1;align=center;verticalAlign=middle;resizable=0;points=[];" parent="1" vertex="1" connectable="0">
          <mxGeometry x="575" y="265.7" as="geometry" />
        </mxCell>
        <mxCell id="3znEi6C4tE_dR8P2ct5M-8" value="" style="rounded=0;orthogonalLoop=1;jettySize=auto;html=1;endArrow=halfCircle;endFill=0;endSize=6;strokeWidth=1;sketch=0;exitX=0.25;exitY=1;exitDx=0;exitDy=0;jumpStyle=arc;jumpSize=15;" parent="1" source="bJ7sigGb2fM7xMqMPN_4-70" target="3znEi6C4tE_dR8P2ct5M-10" edge="1">
          <mxGeometry relative="1" as="geometry">
            <mxPoint x="515" y="331" as="sourcePoint" />
            <Array as="points">
              <mxPoint x="753" y="323" />
            </Array>
          </mxGeometry>
        </mxCell>
        <mxCell id="3znEi6C4tE_dR8P2ct5M-9" value="" style="rounded=0;orthogonalLoop=1;jettySize=auto;html=1;endArrow=oval;endFill=0;sketch=0;sourcePerimeterSpacing=0;targetPerimeterSpacing=0;endSize=10;exitX=0.999;exitY=0.216;exitDx=0;exitDy=0;exitPerimeter=0;" parent="1" source="DKqnZgWaFf-IS6omjSuh-87" target="3znEi6C4tE_dR8P2ct5M-10" edge="1">
          <mxGeometry relative="1" as="geometry">
            <mxPoint x="398" y="326" as="sourcePoint" />
          </mxGeometry>
        </mxCell>
        <mxCell id="3znEi6C4tE_dR8P2ct5M-10" value="" style="ellipse;whiteSpace=wrap;html=1;align=center;aspect=fixed;fillColor=none;strokeColor=none;resizable=0;perimeter=centerPerimeter;rotatable=0;allowArrows=0;points=[];outlineConnect=1;" parent="1" vertex="1">
          <mxGeometry x="429" y="320" width="10" height="10" as="geometry" />
        </mxCell>
        <mxCell id="3znEi6C4tE_dR8P2ct5M-11" value="StreamScorer" style="edgeLabel;html=1;align=center;verticalAlign=middle;resizable=0;points=[];" parent="1" vertex="1" connectable="0">
          <mxGeometry x="434" y="307" as="geometry" />
        </mxCell>
        <mxCell id="QCWwCiVvSpLBN6h1Hko5-1" value="Gestor de información para control de acceso" style="shape=module;align=left;spacingLeft=18;align=center;verticalAlign=middle;whiteSpace=wrap;html=1;container=0;fillColor=light-dark(#a8abfe, #30477a);strokeColor=#1A31AF;spacingRight=2;jettyWidth=22;jettyHeight=8;" parent="1" vertex="1">
          <mxGeometry x="1601" y="400" width="89" height="96" as="geometry" />
        </mxCell>
        <mxCell id="QCWwCiVvSpLBN6h1Hko5-2" value="" style="shape=waypoint;sketch=0;fillStyle=solid;size=6;pointerEvents=1;points=[];fillColor=none;resizable=0;rotatable=0;perimeter=centerPerimeter;snapToPoint=1;container=0;" parent="1" vertex="1">
          <mxGeometry x="1368" y="316" width="20" height="20" as="geometry" />
        </mxCell>
        <mxCell id="QCWwCiVvSpLBN6h1Hko5-3" value="" style="endArrow=none;html=1;rounded=0;entryX=0.174;entryY=0.636;entryDx=0;entryDy=0;entryPerimeter=0;exitX=0.84;exitY=0.471;exitDx=0;exitDy=0;exitPerimeter=0;" parent="1" source="QCWwCiVvSpLBN6h1Hko5-2" target="S-wfzaOlgkgEpIh9Br1b-112" edge="1">
          <mxGeometry width="50" height="50" relative="1" as="geometry">
            <mxPoint x="1260" y="316" as="sourcePoint" />
            <mxPoint x="1310" y="266" as="targetPoint" />
          </mxGeometry>
        </mxCell>
        <mxCell id="QCWwCiVvSpLBN6h1Hko5-4" value="" style="rounded=0;orthogonalLoop=1;jettySize=auto;html=1;endArrow=halfCircle;endFill=0;endSize=6;strokeWidth=1;sketch=0;exitX=0.5;exitY=0;exitDx=0;exitDy=0;" parent="1" source="QCWwCiVvSpLBN6h1Hko5-1" target="QCWwCiVvSpLBN6h1Hko5-6" edge="1">
          <mxGeometry relative="1" as="geometry">
            <mxPoint x="1480" y="326" as="sourcePoint" />
            <Array as="points">
              <mxPoint x="1646" y="326" />
            </Array>
          </mxGeometry>
        </mxCell>
        <mxCell id="QCWwCiVvSpLBN6h1Hko5-5" value="" style="rounded=0;orthogonalLoop=1;jettySize=auto;html=1;endArrow=oval;endFill=0;sketch=0;sourcePerimeterSpacing=0;targetPerimeterSpacing=0;endSize=10;exitX=0.769;exitY=0.59;exitDx=0;exitDy=0;exitPerimeter=0;" parent="1" source="QCWwCiVvSpLBN6h1Hko5-2" target="QCWwCiVvSpLBN6h1Hko5-6" edge="1">
          <mxGeometry relative="1" as="geometry">
            <mxPoint x="1440" y="326" as="sourcePoint" />
          </mxGeometry>
        </mxCell>
        <mxCell id="QCWwCiVvSpLBN6h1Hko5-6" value="" style="ellipse;whiteSpace=wrap;html=1;align=center;aspect=fixed;fillColor=none;strokeColor=none;resizable=0;perimeter=centerPerimeter;rotatable=0;allowArrows=0;points=[];outlineConnect=1;" parent="1" vertex="1">
          <mxGeometry x="1455" y="321" width="10" height="10" as="geometry" />
        </mxCell>
        <mxCell id="QCWwCiVvSpLBN6h1Hko5-8" value="Log" style="edgeLabel;html=1;align=center;verticalAlign=middle;resizable=0;points=[];labelBackgroundColor=light-dark(#8089ff, #ededed);" parent="1" vertex="1" connectable="0">
          <mxGeometry x="1440" y="325" as="geometry" />
        </mxCell>
        <mxCell id="ShVdANdpUh66wp8vAkwB-1" value="" style="group" parent="1" vertex="1" connectable="0">
          <mxGeometry x="276" y="714" width="166.5" height="107.5" as="geometry" />
        </mxCell>
        <mxCell id="ShVdANdpUh66wp8vAkwB-2" value="" style="shape=module;align=left;spacingLeft=20;align=center;verticalAlign=top;whiteSpace=wrap;html=1;fillColor=light-dark(#fffdc5, #231c00);strokeColor=#d6b656;" parent="ShVdANdpUh66wp8vAkwB-1" vertex="1">
          <mxGeometry width="166.5" height="107.5" as="geometry" />
        </mxCell>
        <mxCell id="ShVdANdpUh66wp8vAkwB-3" value="DB de datos de videos históricos" style="shape=cylinder3;whiteSpace=wrap;html=1;boundedLbl=1;backgroundOutline=1;size=15;fillColor=#f8cecc;strokeColor=#b85450;" parent="ShVdANdpUh66wp8vAkwB-1" vertex="1">
          <mxGeometry x="46.05" y="10.56" width="93.95" height="86.37" as="geometry" />
        </mxCell>
        <mxCell id="ShVdANdpUh66wp8vAkwB-6" value="" style="rounded=0;orthogonalLoop=1;jettySize=auto;html=1;endArrow=halfCircle;endFill=0;endSize=6;strokeWidth=1;sketch=0;exitX=0.848;exitY=1.006;exitDx=0;exitDy=0;exitPerimeter=0;" parent="1" source="S-wfzaOlgkgEpIh9Br1b-82" edge="1">
          <mxGeometry relative="1" as="geometry">
            <mxPoint x="2109" y="642" as="sourcePoint" />
            <mxPoint x="2254" y="641" as="targetPoint" />
            <Array as="points">
              <mxPoint x="2103" y="640" />
            </Array>
          </mxGeometry>
        </mxCell>
        <mxCell id="ShVdANdpUh66wp8vAkwB-7" value="Abridor" style="text;html=1;align=center;verticalAlign=middle;whiteSpace=wrap;rounded=0;" parent="1" vertex="1">
          <mxGeometry x="2232" y="644" width="76" height="30" as="geometry" />
        </mxCell>
        <mxCell id="ShVdANdpUh66wp8vAkwB-8" value="" style="endArrow=classic;html=1;rounded=0;exitX=0.75;exitY=1;exitDx=0;exitDy=0;entryX=0.272;entryY=0.004;entryDx=0;entryDy=0;dashed=1;entryPerimeter=0;" parent="1" source="DKqnZgWaFf-IS6omjSuh-72" target="ShVdANdpUh66wp8vAkwB-5" edge="1">
          <mxGeometry width="50" height="50" relative="1" as="geometry">
            <mxPoint x="641" y="690" as="sourcePoint" />
            <mxPoint x="640" y="742" as="targetPoint" />
          </mxGeometry>
        </mxCell>
        <mxCell id="ShVdANdpUh66wp8vAkwB-9" value="" style="endArrow=classic;html=1;rounded=0;exitX=0.25;exitY=1;exitDx=0;exitDy=0;entryX=0.609;entryY=0.004;entryDx=0;entryDy=0;dashed=1;entryPerimeter=0;" parent="1" source="S-wfzaOlgkgEpIh9Br1b-69" target="ShVdANdpUh66wp8vAkwB-5" edge="1">
          <mxGeometry width="50" height="50" relative="1" as="geometry">
            <mxPoint x="221" y="680" as="sourcePoint" />
            <mxPoint x="220" y="732" as="targetPoint" />
          </mxGeometry>
        </mxCell>
        <mxCell id="4KHK3tETtPd6oY9cXHSC-1" value="Tumimeras" style="shape=module;align=left;spacingLeft=20;align=center;verticalAlign=middle;whiteSpace=wrap;html=1;fillColor=#dae8fc;strokeColor=#6c8ebf;" parent="1" vertex="1">
          <mxGeometry x="47" y="316" width="100" height="50" as="geometry" />
        </mxCell>
        <mxCell id="4KHK3tETtPd6oY9cXHSC-2" value="" style="rounded=0;orthogonalLoop=1;jettySize=auto;html=1;endArrow=oval;endFill=0;sketch=0;sourcePerimeterSpacing=0;targetPerimeterSpacing=0;endSize=10;exitX=0.25;exitY=1;exitDx=0;exitDy=0;" parent="1" source="4KHK3tETtPd6oY9cXHSC-1" edge="1">
          <mxGeometry relative="1" as="geometry">
            <mxPoint x="59.83" y="364.5" as="sourcePoint" />
            <mxPoint x="20" y="440" as="targetPoint" />
            <Array as="points">
              <mxPoint x="72" y="440" />
            </Array>
          </mxGeometry>
        </mxCell>
        <mxCell id="4KHK3tETtPd6oY9cXHSC-3" value="CameraAuth" style="edgeLabel;html=1;align=center;verticalAlign=middle;resizable=0;points=[];" parent="4KHK3tETtPd6oY9cXHSC-2" vertex="1" connectable="0">
          <mxGeometry x="0.6934" relative="1" as="geometry">
            <mxPoint y="16" as="offset" />
          </mxGeometry>
        </mxCell>
        <mxCell id="5LQrpWk_FqxnzfHhDCMM-1" value="&lt;div&gt;&lt;b&gt;C.U. 1, 7, 23:&lt;/b&gt; BOB mediante IdAuth.&lt;/div&gt;&lt;div&gt;&lt;b&gt;C.U. 2, 6, 9, 15, 28:&lt;/b&gt; Consultor de videos.&lt;/div&gt;&lt;div&gt;&lt;b&gt;C.U. 3:&lt;/b&gt; API Datos mediante NotificarResidente.&lt;/div&gt;&lt;div&gt;&lt;b&gt;C.U. 4:&lt;/b&gt; Gestor del control de acceso.&lt;/div&gt;&lt;div&gt;&lt;b&gt;C.U. 5, 11, 33:&lt;/b&gt; Edge Controller.&lt;/div&gt;&lt;div&gt;&lt;b&gt;C.U. 8:&lt;/b&gt; Modelo de scoring.&lt;/div&gt;&lt;div&gt;&lt;b&gt;C.U. 10, 34:&lt;/b&gt; Gateway del edificio.&lt;/div&gt;&lt;div&gt;&lt;b&gt;C.U. 12, 14, 16-22, 24-27, 29:&lt;/b&gt; API Datos mediante CRUDcrm.&lt;/div&gt;&lt;div&gt;&lt;b&gt;C.U. 13:&lt;/b&gt; Registro de incidentes.&lt;/div&gt;&lt;div&gt;&lt;b&gt;C.U. 30, 31, 32:&lt;/b&gt; Tumimeras.&lt;/div&gt;" style="shape=note;whiteSpace=wrap;html=1;backgroundOutline=1;darkOpacity=0.05;align=left;verticalAlign=top;spacing=7;spacingLeft=10;fillColor=#f5f5f5;fontColor=#333333;strokeColor=#666666;size=78;" vertex="1" parent="1">
          <mxGeometry x="1978" width="360" height="170" as="geometry" />
        </mxCell>
      </root>
    </mxGraphModel>
  </diagram>
</mxfile>
